<?xml version="1.0" standalone="no"?>
<!DOCTYPE svg PUBLIC "-//W3C//DTD SVG 20010904//EN"
 "http://www.w3.org/TR/2001/REC-SVG-20010904/DTD/svg10.dtd">
<svg version="1.0" xmlns="http://www.w3.org/2000/svg"
 width="698.000000pt" height="698.000000pt" viewBox="0 0 698.000000 698.000000"
 preserveAspectRatio="xMidYMid meet">
<metadata>
Created by potrace 1.11, written by Peter Selinger 2001-2013
</metadata>
<g transform="translate(0.000000,698.000000) scale(0.100000,-0.100000)"
fill="#000000" stroke="none">
<path d="M3420 6515 c0 -157 -3 -205 -12 -206 -7 -1 -31 -3 -53 -4 -148 -10
-195 -17 -332 -51 -364 -90 -697 -313 -923 -619 -37 -49 -78 -110 -91 -135
-13 -25 -27 -47 -31 -50 -12 -10 -86 -175 -117 -263 l-31 -88 118 -56 c64 -30
131 -61 147 -68 17 -8 84 -39 149 -70 124 -57 169 -74 164 -59 -4 16 25 118
54 189 26 62 102 202 117 215 3 3 19 22 35 44 65 87 190 195 291 252 72 41
115 62 115 57 0 -3 6 -1 13 4 11 9 76 34 102 39 6 1 37 9 70 17 33 9 95 19
138 23 l77 7 0 -187 c0 -102 2 -186 5 -186 4 0 243 173 285 207 13 10 70 53
142 105 13 9 95 70 183 135 88 65 200 147 248 183 l88 65 -24 20 c-60 49 -68
55 -76 55 -5 0 -11 4 -13 8 -1 4 -43 37 -93 72 -49 36 -97 70 -105 77 -15 13
-74 56 -335 249 -82 61 -185 136 -227 168 l-78 57 0 -206z"/>
<path d="M4455 5659 c-93 -71 -177 -135 -185 -142 -8 -7 -34 -26 -57 -42 -23
-17 -45 -36 -48 -44 -3 -7 16 -35 44 -65 56 -57 110 -126 135 -171 9 -16 28
-50 42 -75 41 -73 88 -217 100 -303 2 -15 6 -39 9 -55 6 -33 7 -194 0 -240
-12 -92 -18 -119 -37 -180 -21 -70 -55 -152 -63 -152 -2 0 -47 21 -99 46 l-94
47 29 81 c16 44 29 82 29 83 0 1 -33 21 -72 44 -40 24 -74 44 -76 45 -3 2 -6
117 -3 145 0 10 25 32 54 50 28 18 59 39 69 47 19 16 19 14 -57 177 l-45 96
-37 -7 c-21 -4 -45 -10 -53 -14 -8 -4 -31 -10 -50 -14 -32 -5 -39 -1 -87 45
-29 28 -53 57 -53 64 0 8 7 44 15 80 19 80 16 86 -63 113 -31 11 -87 31 -124
45 l-68 26 -44 -77 -45 -76 -76 -2 -77 -1 -45 68 c-25 38 -52 69 -59 69 -8 0
-44 -14 -81 -31 -38 -17 -92 -42 -120 -55 -55 -26 -64 -44 -43 -84 11 -20 21
-71 22 -105 0 -11 -21 -42 -46 -68 -46 -48 -47 -48 -96 -42 -27 3 -64 10 -82
16 -34 9 -55 -2 -63 -32 -6 -27 -17 -56 -49 -136 -18 -44 -30 -85 -28 -91 2
-7 32 -28 68 -48 35 -19 67 -40 70 -46 10 -16 15 -141 6 -153 -4 -6 -35 -28
-69 -50 -67 -43 -74 -59 -47 -100 9 -14 14 -25 11 -25 -6 0 -104 45 -282 130
-103 49 -161 77 -360 170 -44 21 -127 60 -185 88 -58 27 -106 49 -107 48 -2
-1 -7 -33 -13 -72 -5 -38 -12 -80 -14 -94 -3 -14 -7 -47 -11 -75 -9 -71 -15
-115 -20 -150 -9 -57 -16 -105 -30 -210 -3 -22 -8 -53 -12 -70 -3 -16 -7 -46
-8 -65 -3 -34 -5 -51 -24 -170 -5 -30 -7 -58 -4 -62 2 -5 1 -8 -4 -8 -4 0 -8
-15 -9 -33 -2 -45 -14 -140 -20 -149 -12 -18 -3 -14 246 120 36 19 72 40 81
45 25 16 47 2 77 -49 15 -25 32 -51 37 -58 6 -6 27 -34 47 -63 56 -79 66 -90
168 -193 282 -285 616 -436 1045 -475 22 -2 40 -4 40 -5 0 -4 183 -1 245 5
136 12 339 61 348 84 4 12 -3 64 -24 161 -3 14 -7 36 -9 50 -2 14 -8 50 -14
80 -16 84 -21 112 -27 150 -16 105 -31 155 -45 154 -8 -1 -52 -13 -99 -27 -47
-13 -105 -28 -130 -32 -59 -10 -253 -10 -310 -1 -170 28 -327 90 -459 183 -67
47 -221 195 -221 212 0 5 -4 11 -9 13 -4 2 -25 29 -45 60 l-36 58 37 23 c21
13 67 38 103 56 36 18 69 37 74 42 18 16 35 9 51 -21 18 -35 31 -37 123 -11
l69 19 43 -44 c24 -24 48 -44 53 -44 11 0 0 -103 -17 -158 -3 -9 -2 -22 2 -28
10 -15 250 -104 265 -98 6 2 29 36 49 73 l37 69 68 4 c37 2 73 2 80 0 7 -2 26
-25 42 -50 17 -26 35 -52 41 -59 5 -7 10 -17 10 -22 0 -5 8 -8 18 -6 25 5 233
102 245 114 6 6 3 34 -9 83 -10 40 -17 79 -15 86 1 7 23 35 49 62 49 50 58 53
125 35 15 -4 27 -10 28 -14 0 -3 2 -13 4 -21 2 -8 6 -33 10 -55 3 -22 8 -51
11 -65 2 -14 7 -38 10 -55 2 -16 9 -57 15 -90 6 -33 12 -69 14 -80 1 -11 6
-36 10 -55 3 -19 7 -46 9 -60 2 -14 6 -36 9 -50 4 -14 8 -38 11 -55 5 -34 37
-223 51 -300 2 -11 7 -38 10 -60 4 -22 8 -41 10 -43 4 -5 989 499 1030 526 14
9 16 15 8 18 -62 26 -340 169 -345 177 -4 6 -3 16 1 22 7 9 65 144 67 155 0 3
9 32 19 65 11 33 19 62 20 65 5 21 28 128 30 140 2 8 4 15 5 15 12 0 19 368 9
447 -29 220 -103 459 -189 608 -44 78 -102 169 -119 189 -12 13 -21 27 -21 30
0 3 -18 25 -39 49 -22 24 -48 55 -58 68 -10 13 -27 24 -38 23 -11 0 -96 -59
-190 -130z m-844 -732 c98 -44 156 -110 207 -239 6 -15 10 -64 8 -110 -2 -70
-8 -93 -36 -148 -100 -199 -355 -260 -540 -128 -58 42 -74 61 -107 128 -34 69
-34 71 -36 155 -1 70 26 185 44 185 5 0 9 7 9 15 0 21 96 113 138 131 111 49
220 53 313 11z"/>
<path d="M643 3227 c-8 -13 -8 -251 0 -263 3 -5 2 -15 -2 -22 -8 -13 -5 -76 3
-99 3 -7 2 -13 -2 -13 -8 0 -6 -85 2 -107 10 -25 -9 -21 -53 10 -87 63 -161
86 -258 82 -122 -6 -214 -62 -278 -170 -40 -67 -50 -141 -50 -375 0 -288 14
-347 101 -435 64 -65 155 -105 242 -107 75 -2 166 21 205 52 14 11 29 20 34
20 5 0 15 9 23 20 22 30 30 24 27 -20 -2 -22 0 -45 4 -51 4 -8 42 -12 104 -13
77 -1 98 2 104 14 6 12 8 1428 2 1476 -1 13 -200 14 -208 1z m-115 -645 c43
-19 76 -64 95 -127 15 -55 17 -305 2 -360 -30 -110 -88 -153 -200 -150 -113 3
-168 47 -191 150 -19 85 -22 172 -11 285 14 142 59 202 164 219 56 9 95 4 141
-17z"/>
<path d="M2158 3118 c-2 -7 -3 -79 -3 -160 1 -127 -1 -148 -14 -149 -9 -1 -32
-2 -51 -2 l-35 -2 -3 -82 -3 -82 53 -3 53 -3 1 -345 c0 -370 3 -393 52 -458
30 -39 93 -78 142 -87 64 -11 161 -12 168 -1 12 19 10 187 -2 192 -6 2 -35 6
-64 8 -29 2 -59 9 -65 15 -9 9 -13 106 -15 346 l-3 335 53 1 c29 1 63 0 75 -1
25 -2 33 19 32 85 -1 80 -2 80 -71 82 -35 0 -69 1 -75 2 -10 1 -13 40 -13 161
l0 160 -104 0 c-74 0 -105 -4 -108 -12z"/>
<path d="M5586 3121 c-3 -5 -6 -75 -5 -156 0 -81 -2 -149 -5 -152 -3 -3 -27
-6 -53 -7 l-48 -1 0 -80 0 -80 53 -3 52 -3 0 -172 c1 -467 5 -549 27 -593 44
-84 139 -136 246 -136 113 0 102 -11 101 97 0 52 -3 97 -5 99 -3 3 -29 6 -58
7 -99 5 -95 -12 -95 353 -1 174 2 324 5 333 5 14 18 17 77 15 51 -1 72 2 73
11 4 50 3 140 -1 146 -3 4 -35 7 -72 7 -37 0 -71 3 -75 7 -3 4 -7 74 -8 155
-1 81 -3 150 -4 155 -2 10 -199 9 -205 -2z"/>
<path d="M1380 2808 c-78 -19 -97 -27 -145 -59 -54 -36 -115 -104 -139 -156
-11 -21 -22 -45 -27 -54 -7 -15 -14 -54 -24 -139 -3 -19 -5 -75 -5 -125 -2
-214 34 -332 131 -427 99 -97 274 -145 416 -114 66 14 160 71 217 131 90 95
110 170 110 415 -1 240 -20 304 -124 412 -80 83 -161 118 -283 121 -51 2 -108
0 -127 -5z m216 -234 c56 -37 93 -93 99 -152 2 -20 5 -39 5 -42 5 -15 1 -221
-4 -253 -13 -83 -68 -150 -143 -175 -81 -27 -205 10 -251 76 -29 41 -45 125
-45 237 -1 129 9 190 38 240 24 41 83 82 132 91 15 3 29 6 30 8 9 8 115 -15
139 -30z"/>
<path d="M3125 2801 c-58 -19 -113 -51 -140 -81 -26 -29 -33 -25 -31 21 1 23
-3 47 -10 53 -15 16 -193 14 -202 -1 -9 -14 -7 -1041 1 -1050 6 -5 118 -7 197
-4 13 1 15 46 14 343 -1 293 1 349 15 383 30 76 68 111 139 130 99 26 202 -18
244 -103 21 -45 22 -56 23 -377 1 -226 -2 -336 -10 -350 -12 -22 -15 -1461 -2
-1481 7 -12 191 -13 203 -1 5 4 7 26 5 47 -1 22 0 40 4 40 3 0 32 -18 63 -40
174 -123 428 -69 521 110 37 70 43 113 46 335 4 221 -4 303 -31 362 -7 17 -14
36 -14 42 0 28 -127 137 -170 145 -3 1 -11 5 -18 9 -24 16 -158 20 -210 7 -29
-7 -80 -32 -120 -59 l-69 -48 1 251 c0 138 4 254 8 257 5 3 9 161 10 351 0
306 2 350 18 385 62 139 250 169 351 56 47 -53 50 -79 50 -435 0 -183 2 -340
5 -348 3 -14 61 -17 197 -11 17 1 18 20 16 383 -3 376 -9 470 -36 496 -7 7
-13 19 -13 27 0 22 -96 111 -144 134 -65 30 -118 40 -200 37 -94 -4 -162 -27
-236 -82 -33 -24 -63 -44 -66 -44 -3 0 -19 14 -37 30 -18 17 -60 44 -95 61
-79 38 -198 47 -277 20z m780 -1691 c35 -22 73 -86 82 -142 4 -18 6 -91 6
-163 0 -235 -48 -319 -188 -329 -89 -6 -162 34 -203 112 -28 54 -36 258 -15
370 18 92 53 143 116 166 57 20 158 13 202 -14z"/>
<path d="M4825 2813 c-93 -18 -177 -63 -244 -132 -36 -37 -86 -134 -96 -186
-18 -96 -23 -234 -12 -360 8 -92 12 -109 43 -174 61 -123 175 -205 319 -229
54 -8 168 -3 190 9 6 3 28 11 50 18 91 29 196 134 233 234 25 65 34 147 33
292 -1 203 -17 271 -87 364 -48 64 -125 122 -194 146 -42 15 -192 26 -235 18z
m187 -234 c54 -27 87 -70 105 -134 11 -38 12 -301 2 -340 -29 -103 -117 -168
-217 -161 -71 5 -110 22 -153 67 -52 54 -66 116 -63 269 1 69 5 138 8 154 11
49 44 103 77 126 63 45 174 54 241 19z"/>
<path d="M6455 2808 c-58 -12 -126 -38 -159 -62 -167 -119 -242 -415 -170
-676 8 -30 16 -59 18 -65 1 -5 14 -32 28 -60 46 -87 126 -154 228 -190 103
-36 184 -39 315 -10 71 15 235 122 235 153 0 5 -15 21 -32 35 -18 14 -50 41
-72 61 l-38 36 -47 -34 c-158 -116 -368 -74 -424 84 -16 43 -21 71 -18 98 1 9
74 12 332 12 l330 0 -2 133 c-3 210 -48 317 -169 408 -92 68 -241 101 -355 77z
m190 -218 c27 -13 56 -38 70 -59 28 -41 57 -142 45 -154 -4 -5 -103 -9 -220
-10 -231 -1 -233 0 -220 57 22 94 67 151 138 175 66 23 128 19 187 -9z"/>
<path d="M1768 1758 c-2 -7 -3 -299 -3 -648 1 -487 5 -644 15 -675 33 -104
117 -155 259 -161 63 -2 91 1 93 9 4 10 3 147 -1 184 -1 7 -19 10 -51 9 -40
-2 -55 2 -74 19 l-24 22 0 574 c-1 316 -1 598 -1 627 l-1 52 -104 0 c-74 0
-105 -4 -108 -12z"/>
<path d="M2565 1348 c-114 -15 -207 -57 -262 -121 -26 -30 -23 -35 62 -98 33
-24 63 -48 67 -54 5 -6 17 0 30 15 28 31 66 53 78 45 5 -3 11 -1 14 4 4 5 45
9 94 9 107 0 182 -24 202 -66 14 -28 24 -171 12 -173 -4 -1 -72 -3 -152 -4
-198 -3 -253 -10 -313 -39 -89 -41 -145 -114 -165 -211 -33 -163 54 -314 213
-371 32 -11 85 -18 150 -19 118 -3 191 18 243 68 20 19 33 26 32 17 -1 -8 -2
-29 -1 -46 l1 -31 105 0 105 1 1 25 c5 130 0 737 -5 776 -15 96 -70 181 -142
218 -92 48 -247 71 -369 55z m298 -699 c-3 -153 -40 -183 -223 -183 -132 1
-190 29 -209 100 -17 64 17 122 83 143 49 15 63 16 211 16 l140 -1 -2 -75z"/>
<path d="M4767 1354 c-1 -1 -25 -4 -52 -8 -117 -13 -230 -81 -272 -161 -45
-86 -51 -222 -13 -291 52 -94 150 -159 252 -169 29 -3 73 -7 98 -10 25 -3 68
-7 95 -10 98 -10 122 -19 140 -55 48 -92 -36 -178 -179 -184 -113 -5 -252 39
-317 100 -14 13 -30 24 -37 24 -21 0 -145 -129 -139 -144 3 -8 19 -23 34 -33
15 -9 32 -23 36 -30 4 -7 12 -13 18 -13 5 0 26 -11 47 -24 224 -141 609 -94
722 88 26 42 32 65 36 136 1 31 4 60 5 65 2 6 -5 35 -14 65 -38 127 -129 193
-282 206 -16 1 -61 5 -100 8 -151 12 -195 27 -219 74 -25 49 2 113 59 141 40
19 142 25 206 12 30 -6 86 -28 126 -48 l72 -36 25 30 c13 16 41 47 60 69 20
21 36 44 36 50 0 12 -89 74 -140 97 -60 26 -152 46 -228 50 -40 1 -74 2 -75 1z"/>
</g>
</svg>
