<svg width="722" height="190" viewBox="0 0 722 190" fill="none" xmlns="http://www.w3.org/2000/svg">
<path d="M236.438 134.89V140H246.234V71.6558H236.438V96.4995C234.625 94.7808 232.734 93.3745 230.766 92.2808C228.641 91.2495 226.328 90.7339 223.828 90.7339C217.891 90.8901 213.547 93.0151 210.797 97.1089C209.453 98.6401 208.562 100.656 208.125 103.156C207.594 105.625 207.328 109.781 207.328 115.625C207.328 121.375 207.594 125.5 208.125 128C208.562 130.625 209.453 132.703 210.797 134.234C212.266 136.109 214.094 137.609 216.281 138.734C218.375 139.89 220.891 140.5 223.828 140.562C229.016 140.437 233.219 138.546 236.438 134.89ZM226.828 100.531C229.141 100.531 230.969 100.984 232.312 101.89C233.656 102.796 234.578 103.984 235.078 105.453C235.703 106.921 236.125 108.515 236.344 110.234C236.406 111.953 236.438 113.75 236.438 115.625C236.438 117.343 236.406 119.093 236.344 120.875C236.125 122.687 235.703 124.328 235.078 125.796C234.578 127.265 233.656 128.453 232.312 129.359C230.969 130.296 229.141 130.765 226.828 130.765C224.516 130.765 222.75 130.328 221.531 129.453C220.188 128.546 219.203 127.39 218.578 125.984C217.984 124.515 217.594 122.859 217.406 121.015C217.219 119.265 217.125 117.468 217.125 115.625C217.125 113.687 217.219 111.796 217.406 109.953C217.594 108.234 217.984 106.64 218.578 105.171C219.203 103.703 220.188 102.546 221.531 101.703C222.75 100.921 224.516 100.531 226.828 100.531ZM254.812 115.625C254.812 120.75 255.234 124.656 256.078 127.343C256.953 130.031 258.297 132.359 260.109 134.328C261.453 135.859 263.328 137.234 265.734 138.453C268.109 139.796 271.156 140.5 274.875 140.562C278.719 140.5 281.828 139.796 284.203 138.453C285.484 137.89 286.531 137.218 287.344 136.437C288.25 135.75 289.016 135.046 289.641 134.328C291.578 132.359 292.953 130.031 293.766 127.343C294.547 124.656 294.938 120.75 294.938 115.625C294.938 110.5 294.547 106.562 293.766 103.812C292.953 101.125 291.578 98.8589 289.641 97.0151C288.359 95.3901 286.547 93.937 284.203 92.6558C281.828 91.437 278.719 90.7964 274.875 90.7339C271.156 90.7964 268.109 91.437 265.734 92.6558C263.328 93.937 261.453 95.3901 260.109 97.0151C258.297 98.8589 256.953 101.125 256.078 103.812C255.234 106.562 254.812 110.5 254.812 115.625ZM285.141 115.718C285.141 119.031 284.984 121.468 284.672 123.031C284.359 124.625 283.719 126.031 282.75 127.25C282.031 128.187 280.969 129.015 279.562 129.734C278.219 130.421 276.656 130.765 274.875 130.765C273.219 130.765 271.688 130.421 270.281 129.734C268.938 129.015 267.844 128.187 267 127.25C266.156 126.031 265.547 124.625 265.172 123.031C264.797 121.468 264.609 119 264.609 115.625C264.609 112.218 264.797 109.718 265.172 108.125C265.547 106.593 266.156 105.25 267 104.093C267.844 103 268.938 102.14 270.281 101.515C271.688 100.859 273.219 100.531 274.875 100.531C276.656 100.531 278.219 100.859 279.562 101.515C280.969 102.14 282.031 103 282.75 104.093C283.719 105.25 284.359 106.593 284.672 108.125C284.984 109.718 285.141 112.25 285.141 115.718ZM305.766 91.3433H300.891V98.7964H305.766V128C305.766 131.843 306.891 134.781 309.141 136.812C311.328 138.937 314.141 140 317.578 140H322.688V130.765H319.031C316.656 130.828 315.5 129.625 315.562 127.156V98.7964H322.688V91.3433H315.562V76.5308H305.766V91.3433ZM332.484 140H342.281V111.031C342.281 107.625 343.219 105.031 345.094 103.25C346.875 101.437 349.172 100.531 351.984 100.531C354.797 100.531 357.109 101.437 358.922 103.25C360.703 105.031 361.594 107.625 361.594 111.031V140H371.391V111.031C371.391 107.625 372.312 105.031 374.156 103.25C375.969 101.437 378.281 100.531 381.094 100.531C383.906 100.531 386.203 101.437 387.984 103.25C389.766 105.031 390.656 107.625 390.656 111.031V140H400.453V107.656C400.328 102.093 398.609 97.8745 395.297 94.9995C391.953 92.1558 388.266 90.7339 384.234 90.7339C377.828 90.6714 372.719 92.7964 368.906 97.1089C367.219 95.2339 365.359 93.687 363.328 92.4683C361.266 91.3745 358.547 90.7964 355.172 90.7339C349.922 90.7339 345.688 92.6558 342.469 96.4995H342.281V91.3433H332.484V140ZM411.375 115.625C411.375 120.75 411.797 124.656 412.641 127.343C413.516 130.031 414.859 132.359 416.672 134.328C418.016 135.859 419.891 137.234 422.297 138.453C424.672 139.796 427.719 140.5 431.438 140.562C435.281 140.5 438.391 139.796 440.766 138.453C442.047 137.89 443.094 137.218 443.906 136.437C444.812 135.75 445.578 135.046 446.203 134.328C448.141 132.359 449.516 130.031 450.328 127.343C451.109 124.656 451.5 120.75 451.5 115.625C451.5 110.5 451.109 106.562 450.328 103.812C449.516 101.125 448.141 98.8589 446.203 97.0151C444.922 95.3901 443.109 93.937 440.766 92.6558C438.391 91.437 435.281 90.7964 431.438 90.7339C427.719 90.7964 424.672 91.437 422.297 92.6558C419.891 93.937 418.016 95.3901 416.672 97.0151C414.859 98.8589 413.516 101.125 412.641 103.812C411.797 106.562 411.375 110.5 411.375 115.625ZM441.703 115.718C441.703 119.031 441.547 121.468 441.234 123.031C440.922 124.625 440.281 126.031 439.312 127.25C438.594 128.187 437.531 129.015 436.125 129.734C434.781 130.421 433.219 130.765 431.438 130.765C429.781 130.765 428.25 130.421 426.844 129.734C425.5 129.015 424.406 128.187 423.562 127.25C422.719 126.031 422.109 124.625 421.734 123.031C421.359 121.468 421.172 119 421.172 115.625C421.172 112.218 421.359 109.718 421.734 108.125C422.109 106.593 422.719 105.25 423.562 104.093C424.406 103 425.5 102.14 426.844 101.515C428.25 100.859 429.781 100.531 431.438 100.531C433.219 100.531 434.781 100.859 436.125 101.515C437.531 102.14 438.594 103 439.312 104.093C440.281 105.25 440.922 106.593 441.234 108.125C441.547 109.718 441.703 112.25 441.703 115.718ZM462.328 91.3433H457.453V98.7964H462.328V128C462.328 131.843 463.453 134.781 465.703 136.812C467.891 138.937 470.703 140 474.141 140H479.25V130.765H475.594C473.219 130.828 472.062 129.625 472.125 127.156V98.7964H479.25V91.3433H472.125V76.5308H462.328V91.3433ZM526.219 119.375V111.312C526.156 104.906 524.172 99.8745 520.266 96.2183C516.422 92.6245 511.719 90.7964 506.156 90.7339C503.844 90.7339 501.5 91.1558 499.125 91.9995C496.719 92.8433 494.547 94.2183 492.609 96.1245C490.703 97.9995 489.141 100.562 487.922 103.812C486.703 107 486.094 111 486.094 115.812C486.094 120.812 486.797 124.875 488.203 128C489.484 131.25 491.156 133.781 493.219 135.593C494.281 136.468 495.422 137.203 496.641 137.796C497.797 138.484 498.984 139.031 500.203 139.437C502.641 140.187 505.141 140.562 507.703 140.562C514.422 140.625 520.266 138 525.234 132.687L518.156 126.64C515.031 129.796 511.484 131.375 507.516 131.375C504.109 131.375 501.359 130.343 499.266 128.281C497.016 126.25 495.891 123.281 495.891 119.375H526.219ZM495.891 111.312C496.078 107.531 497.094 104.671 498.938 102.734C500.812 100.89 503.219 99.9683 506.156 99.9683C509.094 99.9683 511.5 100.89 513.375 102.734C515.281 104.671 516.297 107.531 516.422 111.312H495.891ZM559.547 128.187C559.547 132.468 560.766 135.515 563.203 137.328C565.516 139.109 568.453 140 572.016 140H576.375V130.765H573C570.562 130.765 569.344 129.656 569.344 127.437V71.6558H559.547V128.187ZM609.844 140H619.641V106.765C619.578 100.828 617.719 96.6401 614.062 94.2026C610.406 91.8276 605.516 90.6714 599.391 90.7339C592.141 90.6089 586.656 92.9839 582.938 97.8589L590.625 103.718C591.469 102.312 592.625 101.312 594.094 100.718C595.5 100.218 597.422 99.9683 599.859 99.9683C606.578 99.8433 609.906 101.921 609.844 106.203V111.312H596.297C591.109 111.375 587.172 112.781 584.484 115.531C581.797 118.218 580.453 121.609 580.453 125.703C580.453 129.984 582 133.5 585.094 136.25C588.031 139.062 592.219 140.5 597.656 140.562C600.969 140.562 603.562 140.156 605.438 139.343C607.344 138.562 608.75 137.343 609.656 135.687H609.844V140ZM609.844 122.89C609.844 126.546 609.078 128.89 607.547 129.921C605.859 130.953 602.969 131.437 598.875 131.375C595.625 131.375 593.297 130.734 591.891 129.453C590.422 128.296 589.688 126.89 589.688 125.234C589.625 121.453 592.438 119.5 598.125 119.375H609.844V122.89ZM632.297 140H642.094V134.89C645.344 138.546 649.531 140.437 654.656 140.562C657.688 140.5 660.281 139.89 662.438 138.734C664.625 137.609 666.391 136.109 667.734 134.234C669.078 132.703 670 130.625 670.5 128C670.969 125.5 671.203 121.375 671.203 115.625C671.203 109.781 670.969 105.625 670.5 103.156C670 100.656 669.078 98.6401 667.734 97.1089C664.984 93.0151 660.625 90.8901 654.656 90.7339C652.156 90.7339 649.922 91.2495 647.953 92.2808C645.828 93.3745 643.875 94.7808 642.094 96.4995V71.6558H632.297V140ZM651.703 100.531C654.016 100.531 655.844 100.921 657.188 101.703C658.531 102.546 659.484 103.703 660.047 105.171C660.672 106.64 661.094 108.234 661.312 109.953C661.375 111.796 661.406 113.687 661.406 115.625C661.406 117.468 661.375 119.265 661.312 121.015C661.094 122.859 660.672 124.515 660.047 125.984C659.484 127.39 658.531 128.546 657.188 129.453C655.844 130.328 654.016 130.765 651.703 130.765C649.516 130.765 647.781 130.296 646.5 129.359C645.156 128.453 644.172 127.265 643.547 125.796C642.953 124.328 642.562 122.687 642.375 120.875C642.188 119.093 642.094 117.343 642.094 115.625C642.094 113.75 642.188 111.953 642.375 110.234C642.562 108.515 642.953 106.921 643.547 105.453C644.172 103.984 645.156 102.796 646.5 101.89C647.781 100.984 649.516 100.531 651.703 100.531ZM683.625 125.14L676.781 131.843C683.125 137.656 690.266 140.562 698.203 140.562C704.047 140.5 708.844 139.156 712.594 136.531C716.375 133.968 718.297 130.328 718.359 125.609C718.359 121.578 717.312 118.25 715.219 115.625C712.969 112.937 709.312 111.406 704.25 111.031L696.188 110.421C693.812 110.171 692.156 109.593 691.219 108.687C690.188 107.875 689.703 106.921 689.766 105.828C689.766 104.109 690.406 102.703 691.688 101.609C692.906 100.515 695.047 99.9683 698.109 99.9683C700.797 99.9683 703.172 100.359 705.234 101.14C707.328 102.015 709.312 103.125 711.188 104.468L717.234 97.3901C714.859 95.3276 712.172 93.687 709.172 92.4683C707.609 91.9058 705.938 91.4683 704.156 91.1558C702.375 90.8745 700.359 90.7339 698.109 90.7339C692.922 90.7339 688.641 91.9839 685.266 94.4839C681.797 96.9839 680.031 100.734 679.969 105.734C680.031 109.89 681.375 113.125 684 115.437C686.562 117.812 689.891 119.187 693.984 119.562L702.609 120.312C704.422 120.375 705.875 120.765 706.969 121.484C708.031 122.171 708.562 123.39 708.562 125.14C708.562 127.109 707.672 128.64 705.891 129.734C704.109 130.828 701.812 131.375 699 131.375C692.719 131.375 687.594 129.296 683.625 125.14Z" fill="#111111"/>
<path d="M57.61 125.6C53.83 127.6 50.07 129.699 46.27 131.679C45.42 132.119 45.36 132.469 45.84 133.259C49.2928 139.204 53.8927 144.403 59.3725 148.554C64.8523 152.705 71.1026 155.725 77.76 157.439C88.55 160.394 100.011 159.733 110.39 155.559C111.25 155.229 111.51 155.259 111.69 156.279C113.39 165.899 115.137 175.509 116.93 185.109C117.09 185.949 116.65 186.029 116.09 186.199C106.975 189.164 97.3898 190.412 87.82 189.88C57.73 188.049 34.82 174.149 19.08 148.479C18.08 146.859 18.14 146.84 16.46 147.74L1 156.079C0.71 156.239 0.4 156.369 0 156.569C2.78 137.009 5.55 117.569 8.33 97.9795L55.2 120.119C56.1814 121.863 56.9887 123.698 57.61 125.6Z" fill="#111111"/>
<path d="M90.3097 -0.000488281L138 35.1495L90.4597 70.1795C90.2819 69.8311 90.229 69.4323 90.3097 69.0495C90.3097 63.5195 90.3097 57.9895 90.3097 52.4595C90.3097 51.5995 90.0797 51.4595 89.2497 51.4595C77.6077 51.8726 66.4311 56.1337 57.4689 63.5759C48.5068 71.0181 42.2648 81.2216 39.7197 92.5895C39.5997 93.0995 39.4997 93.5895 39.3997 94.1295C39.0497 94.2195 38.8197 94.0095 38.5697 93.8995C29.7297 89.8195 20.9097 85.7195 12.0497 81.6895C11.0497 81.2595 10.9197 80.8595 11.2297 79.8895C16.0849 63.8794 25.6462 49.7012 38.6697 39.1995C50.3338 29.6802 64.3883 23.5472 79.2997 21.4695C82.3306 21.0244 85.3868 20.7739 88.4497 20.7195C90.2897 20.7195 90.2897 20.7195 90.2897 18.8895V-0.000488281H90.3097Z" fill="#111111"/>
<path d="M129.37 121.729C132.37 123.199 135.37 124.639 138.28 126.169C139.08 126.589 139.34 126.469 139.71 125.669C144.252 115.691 145.56 104.542 143.452 93.7836C141.343 83.0248 135.923 73.1947 127.95 65.6695C126.84 64.6695 126.86 64.6695 128.1 63.6695C135.673 57.9695 143.23 52.2495 150.77 46.5095C151.45 45.9895 151.77 45.9295 152.44 46.6095C164.039 58.8672 171.626 74.3695 174.19 91.0495C176.849 107.413 174.46 124.198 167.34 139.169C166.91 140.099 166.91 140.479 167.92 140.969C173.65 143.749 179.34 146.629 185.26 149.589L132.53 176.589L131.13 168.589L124.95 132.979C124.57 130.819 124.21 128.649 123.85 126.479C124.531 126.438 125.213 126.544 125.85 126.789C126.031 126.885 126.233 126.937 126.438 126.942C126.644 126.947 126.847 126.904 127.033 126.817C127.219 126.729 127.383 126.6 127.51 126.44C127.638 126.279 127.727 126.09 127.77 125.889C128.23 124.519 128.82 123.129 129.37 121.729Z" fill="#111111"/>
<path d="M129.37 121.73C128.82 123.13 128.23 124.52 127.73 125.94C127.687 126.141 127.599 126.329 127.471 126.49C127.343 126.651 127.18 126.78 126.994 126.867C126.808 126.954 126.604 126.997 126.399 126.992C126.193 126.988 125.992 126.935 125.81 126.84C125.173 126.594 124.491 126.488 123.81 126.53C122.267 125.979 120.655 125.643 119.02 125.53C118.739 125.512 118.458 125.572 118.209 125.705C117.96 125.837 117.752 126.036 117.61 126.28C116.652 127.612 115.522 128.813 114.25 129.85C113.928 130.077 113.689 130.403 113.568 130.778C113.447 131.153 113.452 131.557 113.58 131.93C114.14 133.86 114.58 135.81 115.17 137.75C115.63 139.35 115.61 139.45 114.17 140.12C110.61 141.73 107.03 143.31 103.5 144.97C103.35 145.077 103.177 145.148 102.995 145.179C102.813 145.21 102.626 145.199 102.449 145.147C102.272 145.095 102.109 145.003 101.972 144.879C101.836 144.755 101.729 144.601 101.66 144.43C100.54 142.68 99.3502 140.97 98.2302 139.21C98.0323 138.807 97.7048 138.483 97.3004 138.289C96.8959 138.095 96.438 138.042 96.0001 138.14C94.4458 138.356 92.871 138.383 91.3102 138.22C90.9036 138.159 90.4884 138.233 90.1275 138.43C89.7666 138.626 89.4797 138.935 89.3102 139.31C88.3102 141.19 87.1301 143.03 86.1101 144.93C86.047 145.113 85.9437 145.28 85.8079 145.418C85.672 145.556 85.507 145.662 85.3248 145.728C85.1427 145.794 84.9481 145.819 84.7552 145.8C84.5623 145.781 84.3761 145.72 84.2101 145.62C80.4901 144.18 76.7802 142.75 73.0302 141.39C72.8308 141.355 72.642 141.275 72.4778 141.157C72.3136 141.039 72.1783 140.885 72.0821 140.707C71.9858 140.529 71.9312 140.331 71.9222 140.129C71.9132 139.927 71.9501 139.726 72.0302 139.54C72.4902 137.54 72.8702 135.45 73.3102 133.41C73.4301 132.955 73.3971 132.474 73.2164 132.04C73.0357 131.607 72.7172 131.244 72.3102 131.01C70.9434 130.038 69.7125 128.888 68.6501 127.59C68.4988 127.38 68.2813 127.228 68.0328 127.157C67.7842 127.086 67.5191 127.101 67.2802 127.2C65.0602 127.82 62.8101 128.36 60.6001 129C60.4336 129.081 60.2509 129.124 60.0655 129.125C59.8801 129.126 59.6969 129.085 59.5295 129.005C59.3622 128.925 59.2151 128.809 59.0992 128.664C58.9833 128.519 58.9015 128.35 58.8601 128.17C58.5932 127.242 58.1594 126.372 57.5801 125.6C56.9556 123.698 56.145 121.862 55.1601 120.12C54.8385 119.053 54.3957 118.026 53.8402 117.06C53.7408 116.926 53.6732 116.772 53.6426 116.609C53.612 116.445 53.6191 116.277 53.6635 116.117C53.7079 115.957 53.7884 115.809 53.8987 115.685C54.009 115.56 54.1464 115.463 54.3001 115.4C56.1501 114.21 57.9602 112.96 59.8102 111.78C60.155 111.598 60.4324 111.311 60.6016 110.96C60.7708 110.609 60.8229 110.213 60.7501 109.83C60.4838 108.176 60.4401 106.495 60.6202 104.83C60.6655 104.434 60.5807 104.035 60.3785 103.692C60.1764 103.349 59.868 103.082 59.5001 102.93C57.6301 101.87 55.7801 100.75 53.8801 99.7297C53.0201 99.2697 52.9301 98.7297 53.2501 97.9097C54.7001 94.1597 56.1301 90.3997 57.5101 86.6197C57.5399 86.4462 57.6077 86.2814 57.7088 86.1372C57.8099 85.993 57.9417 85.8731 58.0948 85.7861C58.2478 85.699 58.4183 85.647 58.5939 85.6338C58.7695 85.6206 58.9458 85.6465 59.1101 85.7097C61.1101 86.1397 63.1101 86.4797 65.1101 86.9497C65.6061 87.1249 66.1478 87.1208 66.641 86.9382C67.1343 86.7555 67.548 86.4057 67.8102 85.9497C68.6496 84.7519 69.6604 83.6838 70.8102 82.7797C71.1781 82.5268 71.4509 82.1581 71.585 81.7322C71.7191 81.3063 71.7068 80.8478 71.5501 80.4297C70.9201 78.3697 70.4501 76.2497 69.8301 74.1797C69.7565 74.0308 69.7172 73.8672 69.7152 73.701C69.7132 73.5348 69.7485 73.3703 69.8186 73.2196C69.8887 73.069 69.9917 72.9359 70.12 72.8304C70.2484 72.7248 70.3988 72.6494 70.5602 72.6097C74.3335 70.9097 78.0968 69.1997 81.8501 67.4797C81.9946 67.3938 82.1558 67.34 82.3228 67.322C82.4899 67.304 82.6589 67.3222 82.8183 67.3753C82.9777 67.4284 83.1238 67.5153 83.2466 67.63C83.3695 67.7446 83.4662 67.8844 83.5302 68.0397C84.6502 69.7997 85.8601 71.4997 86.9601 73.2697C87.1664 73.7069 87.5198 74.0577 87.9585 74.2606C88.3973 74.4636 88.8934 74.5057 89.3601 74.3797C90.7957 74.1162 92.264 74.0825 93.7101 74.2797C94.1908 74.3709 94.6883 74.2945 95.1195 74.0634C95.5508 73.8323 95.8898 73.4605 96.0801 73.0097C97.0801 71.1897 98.1801 69.4097 99.1601 67.5697C99.5801 66.7797 100.03 66.5697 100.85 66.8797C104.68 68.3397 108.51 69.7897 112.35 71.1997C112.513 71.2323 112.667 71.3001 112.801 71.3984C112.935 71.4968 113.046 71.6233 113.126 71.7691C113.207 71.9149 113.254 72.0764 113.265 72.2424C113.276 72.4083 113.25 72.5747 113.19 72.7297C112.77 74.7297 112.44 76.7297 111.95 78.7297C111.764 79.2591 111.768 79.8372 111.964 80.3634C112.159 80.8896 112.533 81.3306 113.02 81.6097C114.208 82.3882 115.259 83.358 116.13 84.4797C116.377 84.8518 116.745 85.127 117.171 85.2583C117.598 85.3895 118.057 85.3689 118.47 85.1997C120.34 84.6897 122.22 84.1997 124.08 83.6597C125.68 83.1997 125.84 83.2597 126.53 84.7997C128.12 88.3297 129.68 91.8697 131.32 95.3797C131.423 95.5222 131.493 95.6859 131.524 95.8589C131.556 96.0318 131.548 96.2096 131.502 96.3792C131.456 96.5488 131.373 96.7061 131.258 96.8394C131.144 96.9727 131.001 97.0787 130.84 97.1497C129.03 98.3197 127.26 99.5597 125.43 100.72C125.029 100.921 124.71 101.255 124.527 101.666C124.345 102.076 124.311 102.537 124.43 102.97C124.745 104.395 124.806 105.864 124.61 107.31C124.512 107.807 124.588 108.322 124.824 108.77C125.061 109.218 125.444 109.571 125.91 109.77C127.61 110.7 129.28 111.67 130.97 112.62C132.31 113.37 132.36 113.52 131.81 115C131 117.26 130.19 119.49 129.37 121.73ZM74.3701 106.3C74.3781 109.905 75.454 113.426 77.4622 116.42C79.4703 119.414 82.3206 121.746 85.6531 123.121C88.9855 124.496 92.6507 124.853 96.1857 124.146C99.7207 123.439 102.967 121.701 105.515 119.15C108.062 116.6 109.797 113.352 110.5 109.816C111.203 106.28 110.842 102.615 109.464 99.2842C108.085 95.9533 105.75 93.1056 102.754 91.1007C99.7581 89.0958 96.2351 88.0237 92.6301 88.0197C90.2351 88.021 87.864 88.4955 85.6529 89.416C83.4418 90.3365 81.4343 91.6847 79.7459 93.3834C78.0575 95.082 76.7214 97.0975 75.8143 99.3141C74.9072 101.531 74.447 103.905 74.4601 106.3H74.3701Z" fill="#DD2C1B"/>
</svg>
