<svg width="522" height="190" viewBox="0 0 522 190" fill="none" xmlns="http://www.w3.org/2000/svg">
<path d="M58.5006 125.6C54.7206 127.6 50.9606 129.7 47.1606 131.68C46.3106 132.12 46.2506 132.47 46.7306 133.26C50.1834 139.205 54.7833 144.403 60.2631 148.555C65.7429 152.706 71.9932 155.726 78.6506 157.44C89.4407 160.394 100.901 159.734 111.281 155.56C112.141 155.23 112.401 155.26 112.581 156.28C114.281 165.9 116.027 175.51 117.821 185.11C117.981 185.95 117.541 186.03 116.981 186.2C107.866 189.164 98.2805 190.412 88.7106 189.88C58.6206 188.05 35.7106 174.15 19.9706 148.48C18.9706 146.86 19.0306 146.84 17.3506 147.74L1.89062 156.08C1.60063 156.24 1.29063 156.37 0.890625 156.57C3.67062 137.01 6.44063 117.57 9.22063 97.98L56.0906 120.12C57.0721 121.863 57.8793 123.699 58.5006 125.6V125.6Z" fill="#111111"/>
<path d="M91.2003 0L138.89 35.15L91.3503 70.18C91.1726 69.8316 91.1196 69.4327 91.2003 69.05C91.2003 63.52 91.2003 57.99 91.2003 52.46C91.2003 51.6 90.9703 51.46 90.1403 51.46C78.4983 51.8731 67.3217 56.1341 58.3596 63.5764C49.3974 71.0186 43.1554 81.2221 40.6103 92.59C40.4903 93.1 40.3903 93.59 40.2903 94.13C39.9403 94.22 39.7103 94.01 39.4603 93.9C30.6203 89.82 21.8003 85.72 12.9403 81.69C11.9403 81.26 11.8103 80.86 12.1203 79.89C16.9755 63.8799 26.5369 49.7017 39.5603 39.2C51.2244 29.6807 65.2789 23.5476 80.1903 21.47C83.2212 21.0249 86.2775 20.7744 89.3403 20.72C91.1803 20.72 91.1803 20.72 91.1803 18.89V0H91.2003Z" fill="#111111"/>
<path d="M130.26 121.73C133.26 123.2 136.26 124.64 139.17 126.17C139.97 126.59 140.23 126.47 140.6 125.67C145.143 115.692 146.451 104.543 144.342 93.7841C142.234 83.0253 136.813 73.1952 128.84 65.67C127.73 64.67 127.75 64.67 128.99 63.67C136.564 57.97 144.12 52.25 151.66 46.51C152.34 45.99 152.66 45.93 153.33 46.61C164.929 58.8677 172.517 74.37 175.08 91.05C177.74 107.413 175.35 124.199 168.23 139.17C167.8 140.1 167.8 140.48 168.81 140.97C174.54 143.75 180.23 146.63 186.15 149.59L133.42 176.59L132.02 168.59L125.84 132.98C125.46 130.82 125.1 128.65 124.74 126.48C125.421 126.438 126.104 126.544 126.74 126.79C126.922 126.886 127.124 126.938 127.329 126.943C127.534 126.947 127.738 126.904 127.924 126.817C128.11 126.73 128.273 126.601 128.401 126.44C128.529 126.279 128.617 126.091 128.66 125.89C129.12 124.52 129.71 123.13 130.26 121.73Z" fill="#111111"/>
<path d="M130.261 121.73C129.711 123.13 129.121 124.52 128.621 125.94C128.578 126.141 128.489 126.329 128.361 126.49C128.234 126.651 128.07 126.78 127.884 126.867C127.698 126.954 127.495 126.997 127.289 126.993C127.084 126.988 126.883 126.936 126.701 126.84C126.064 126.594 125.382 126.488 124.701 126.53C123.157 125.979 121.546 125.643 119.911 125.53C119.629 125.512 119.348 125.572 119.099 125.705C118.85 125.837 118.643 126.036 118.501 126.28C117.543 127.613 116.413 128.813 115.141 129.85C114.819 130.077 114.58 130.403 114.459 130.778C114.338 131.153 114.342 131.557 114.471 131.93C115.031 133.86 115.471 135.81 116.061 137.75C116.521 139.35 116.501 139.45 115.061 140.12C111.501 141.73 107.921 143.31 104.391 144.97C104.24 145.077 104.068 145.149 103.886 145.179C103.703 145.21 103.517 145.199 103.34 145.147C103.162 145.095 102.999 145.003 102.863 144.879C102.726 144.755 102.619 144.601 102.551 144.43C101.431 142.68 100.241 140.97 99.1208 139.21C98.9229 138.807 98.5955 138.483 98.191 138.289C97.7866 138.095 97.3286 138.042 96.8908 138.14C95.3365 138.357 93.7616 138.383 92.2008 138.22C91.7942 138.159 91.379 138.233 91.0181 138.43C90.6572 138.627 90.3703 138.936 90.2008 139.31C89.2008 141.19 88.0208 143.03 87.0008 144.93C86.9376 145.113 86.8344 145.28 86.6985 145.418C86.5626 145.556 86.3976 145.662 86.2154 145.728C86.0333 145.795 85.8387 145.819 85.6458 145.8C85.453 145.782 85.2667 145.72 85.1008 145.62C81.3808 144.18 77.6708 142.75 73.9208 141.39C73.7215 141.355 73.5326 141.276 73.3684 141.157C73.2042 141.039 73.0689 140.885 72.9727 140.707C72.8765 140.529 72.8218 140.332 72.8128 140.13C72.8038 139.927 72.8407 139.726 72.9208 139.54C73.3808 137.54 73.7608 135.45 74.2008 133.41C74.3207 132.956 74.2878 132.474 74.107 132.041C73.9263 131.607 73.6078 131.245 73.2008 131.01C71.834 130.038 70.6031 128.888 69.5408 127.59C69.3894 127.38 69.172 127.228 68.9234 127.157C68.6749 127.087 68.4097 127.102 68.1708 127.2C65.9508 127.82 63.7008 128.36 61.4908 129C61.3243 129.082 61.1415 129.124 60.9561 129.125C60.7707 129.126 60.5875 129.085 60.4202 129.006C60.2528 128.926 60.1057 128.809 59.9898 128.664C59.8739 128.52 59.7922 128.351 59.7508 128.17C59.4838 127.243 59.0501 126.372 58.4708 125.6C57.8462 123.698 57.0357 121.863 56.0508 120.12C55.7292 119.053 55.2863 118.026 54.7308 117.06C54.6314 116.927 54.5638 116.772 54.5332 116.609C54.5026 116.446 54.5098 116.277 54.5542 116.117C54.5985 115.957 54.679 115.809 54.7893 115.685C54.8997 115.561 55.037 115.463 55.1908 115.4C57.0408 114.21 58.8508 112.96 60.7008 111.78C61.0456 111.598 61.323 111.311 61.4922 110.96C61.6614 110.609 61.7135 110.213 61.6408 109.83C61.3745 108.177 61.3307 106.495 61.5108 104.83C61.5561 104.435 61.4713 104.035 61.2692 103.692C61.0671 103.349 60.7587 103.082 60.3908 102.93C58.5208 101.87 56.6708 100.75 54.7708 99.73C53.9108 99.27 53.8208 98.73 54.1408 97.91C55.5908 94.16 57.0208 90.4 58.4008 86.62C58.4305 86.4464 58.4983 86.2816 58.5994 86.1375C58.7005 85.9933 58.8323 85.8734 58.9854 85.7863C59.1385 85.6993 59.3089 85.6473 59.4845 85.6341C59.6601 85.6209 59.8364 85.6468 60.0008 85.71C62.0008 86.14 64.0008 86.48 66.0008 86.95C66.4967 87.1252 67.0384 87.1211 67.5317 86.9384C68.0249 86.7557 68.4386 86.406 68.7008 85.95C69.5402 84.7522 70.551 83.6841 71.7008 82.78C72.0687 82.5271 72.3415 82.1583 72.4756 81.7325C72.6097 81.3066 72.5974 80.8481 72.4408 80.43C71.8108 78.37 71.3408 76.25 70.7208 74.18C70.6471 74.031 70.6078 73.8674 70.6058 73.7012C70.6038 73.5351 70.6391 73.3706 70.7092 73.2199C70.7793 73.0692 70.8823 72.9362 71.0106 72.8306C71.139 72.725 71.2894 72.6496 71.4508 72.61C75.2241 70.91 78.9874 69.2 82.7408 67.48C82.8852 67.3941 83.0464 67.3403 83.2135 67.3223C83.3805 67.3042 83.5495 67.3224 83.7089 67.3756C83.8683 67.4287 84.0144 67.5155 84.1372 67.6302C84.2601 67.7448 84.3568 67.8846 84.4208 68.04C85.5408 69.8 86.7508 71.5 87.8508 73.27C88.057 73.7072 88.4104 74.0579 88.8492 74.2609C89.2879 74.4638 89.7841 74.506 90.2508 74.38C91.6863 74.1165 93.1546 74.0827 94.6008 74.28C95.0815 74.3711 95.5789 74.2948 96.0101 74.0637C96.4414 73.8326 96.7804 73.4607 96.9708 73.01C97.9708 71.19 99.0708 69.41 100.051 67.57C100.471 66.78 100.921 66.57 101.741 66.88C105.571 68.34 109.401 69.79 113.241 71.2C113.404 71.2325 113.558 71.3003 113.692 71.3987C113.826 71.497 113.937 71.6235 114.017 71.7693C114.097 71.9151 114.144 72.0767 114.155 72.2426C114.166 72.4086 114.141 72.5749 114.081 72.73C113.661 74.73 113.331 76.73 112.841 78.73C112.654 79.2594 112.659 79.8374 112.855 80.3636C113.05 80.8898 113.424 81.3308 113.911 81.61C115.099 82.3885 116.15 83.3583 117.021 84.48C117.267 84.8521 117.635 85.1272 118.062 85.2585C118.489 85.3898 118.948 85.3691 119.361 85.2C121.231 84.69 123.111 84.2 124.971 83.66C126.571 83.2 126.731 83.26 127.421 84.8C129.011 88.33 130.571 91.87 132.211 95.38C132.314 95.5225 132.383 95.6862 132.415 95.8591C132.446 96.032 132.439 96.2098 132.393 96.3794C132.347 96.5491 132.264 96.7063 132.149 96.8396C132.034 96.9729 131.892 97.079 131.731 97.15C129.921 98.32 128.151 99.56 126.321 100.72C125.919 100.921 125.6 101.256 125.418 101.666C125.236 102.076 125.201 102.537 125.321 102.97C125.635 104.395 125.696 105.864 125.501 107.31C125.403 107.807 125.478 108.322 125.715 108.77C125.952 109.218 126.335 109.571 126.801 109.77C128.501 110.7 130.171 111.67 131.861 112.62C133.201 113.37 133.251 113.52 132.701 115C131.891 117.26 131.081 119.49 130.261 121.73ZM75.2608 106.3C75.2687 109.905 76.3446 113.427 78.3528 116.421C80.361 119.414 83.2112 121.746 86.5437 123.121C89.8761 124.496 93.5413 124.853 97.0763 124.146C100.611 123.439 103.858 121.701 106.405 119.151C108.953 116.6 110.688 113.352 111.391 109.816C112.094 106.28 111.733 102.615 110.354 99.2845C108.976 95.9535 106.641 93.1058 103.645 91.1009C100.649 89.0961 97.1257 88.0239 93.5208 88.02C91.1257 88.0213 88.7546 88.4958 86.5435 89.4162C84.3324 90.3367 82.325 91.685 80.6366 93.3836C78.9481 95.0823 77.612 97.0978 76.7049 99.3144C75.7978 101.531 75.3376 103.905 75.3508 106.3H75.2608Z" fill="#DD2C1B"/>
<path d="M231.26 101.234V106.344H241.057V38H231.26V62.8438C229.447 61.125 227.557 59.7188 225.588 58.625C223.463 57.5938 221.15 57.0781 218.65 57.0781C212.713 57.2344 208.369 59.3594 205.619 63.4531C204.275 64.9844 203.385 67 202.947 69.5C202.416 71.9688 202.15 76.125 202.15 81.9688C202.15 87.7188 202.416 91.8438 202.947 94.3438C203.385 96.9688 204.275 99.0469 205.619 100.578C207.088 102.453 208.916 103.953 211.104 105.078C213.197 106.234 215.713 106.844 218.65 106.906C223.838 106.781 228.041 104.891 231.26 101.234ZM221.65 66.875C223.963 66.875 225.791 67.3281 227.135 68.2344C228.479 69.1406 229.4 70.3281 229.9 71.7969C230.525 73.2656 230.947 74.8594 231.166 76.5781C231.229 78.2969 231.26 80.0938 231.26 81.9688C231.26 83.6875 231.229 85.4375 231.166 87.2188C230.947 89.0312 230.525 90.6719 229.9 92.1406C229.4 93.6094 228.479 94.7969 227.135 95.7031C225.791 96.6406 223.963 97.1094 221.65 97.1094C219.338 97.1094 217.572 96.6719 216.354 95.7969C215.01 94.8906 214.025 93.7344 213.4 92.3281C212.807 90.8594 212.416 89.2031 212.229 87.3594C212.041 85.6094 211.947 83.8125 211.947 81.9688C211.947 80.0312 212.041 78.1406 212.229 76.2969C212.416 74.5781 212.807 72.9844 213.4 71.5156C214.025 70.0469 215.01 68.8906 216.354 68.0469C217.572 67.2656 219.338 66.875 221.65 66.875Z" fill="#111111"/>
<path d="M249.635 81.9688C249.635 87.0938 250.057 91 250.9 93.6875C251.775 96.375 253.119 98.7031 254.932 100.672C256.275 102.203 258.15 103.578 260.557 104.797C262.932 106.141 265.979 106.844 269.697 106.906C273.541 106.844 276.65 106.141 279.025 104.797C280.307 104.234 281.354 103.562 282.166 102.781C283.072 102.094 283.838 101.391 284.463 100.672C286.4 98.7031 287.775 96.375 288.588 93.6875C289.369 91 289.76 87.0938 289.76 81.9688C289.76 76.8438 289.369 72.9062 288.588 70.1562C287.775 67.4688 286.4 65.2031 284.463 63.3594C283.182 61.7344 281.369 60.2812 279.025 59C276.65 57.7812 273.541 57.1406 269.697 57.0781C265.979 57.1406 262.932 57.7812 260.557 59C258.15 60.2812 256.275 61.7344 254.932 63.3594C253.119 65.2031 251.775 67.4688 250.9 70.1562C250.057 72.9062 249.635 76.8438 249.635 81.9688ZM279.963 82.0625C279.963 85.375 279.807 87.8125 279.494 89.375C279.182 90.9688 278.541 92.375 277.572 93.5938C276.854 94.5312 275.791 95.3594 274.385 96.0781C273.041 96.7656 271.479 97.1094 269.697 97.1094C268.041 97.1094 266.51 96.7656 265.104 96.0781C263.76 95.3594 262.666 94.5312 261.822 93.5938C260.979 92.375 260.369 90.9688 259.994 89.375C259.619 87.8125 259.432 85.3438 259.432 81.9688C259.432 78.5625 259.619 76.0625 259.994 74.4688C260.369 72.9375 260.979 71.5938 261.822 70.4375C262.666 69.3438 263.76 68.4844 265.104 67.8594C266.51 67.2031 268.041 66.875 269.697 66.875C271.479 66.875 273.041 67.2031 274.385 67.8594C275.791 68.4844 276.854 69.3438 277.572 70.4375C278.541 71.5938 279.182 72.9375 279.494 74.4688C279.807 76.0625 279.963 78.5938 279.963 82.0625Z" fill="#111111"/>
<path d="M300.588 57.6875H295.713V65.1406H300.588V94.3438C300.588 98.1875 301.713 101.125 303.963 103.156C306.15 105.281 308.963 106.344 312.4 106.344H317.51V97.1094H313.854C311.479 97.1719 310.322 95.9688 310.385 93.5V65.1406H317.51V57.6875H310.385V42.875H300.588V57.6875Z" fill="#111111"/>
<path d="M327.307 106.344H337.104V77.375C337.104 73.9688 338.041 71.375 339.916 69.5938C341.697 67.7812 343.994 66.875 346.807 66.875C349.619 66.875 351.932 67.7812 353.744 69.5938C355.525 71.375 356.416 73.9688 356.416 77.375V106.344H366.213V77.375C366.213 73.9688 367.135 71.375 368.979 69.5938C370.791 67.7812 373.104 66.875 375.916 66.875C378.729 66.875 381.025 67.7812 382.807 69.5938C384.588 71.375 385.479 73.9688 385.479 77.375V106.344H395.275V74C395.15 68.4375 393.432 64.2188 390.119 61.3438C386.775 58.5 383.088 57.0781 379.057 57.0781C372.65 57.0156 367.541 59.1406 363.729 63.4531C362.041 61.5781 360.182 60.0312 358.15 58.8125C356.088 57.7188 353.369 57.1406 349.994 57.0781C344.744 57.0781 340.51 59 337.291 62.8438H337.104V57.6875H327.307V106.344Z" fill="#111111"/>
<path d="M406.197 81.9688C406.197 87.0938 406.619 91 407.463 93.6875C408.338 96.375 409.682 98.7031 411.494 100.672C412.838 102.203 414.713 103.578 417.119 104.797C419.494 106.141 422.541 106.844 426.26 106.906C430.104 106.844 433.213 106.141 435.588 104.797C436.869 104.234 437.916 103.562 438.729 102.781C439.635 102.094 440.4 101.391 441.025 100.672C442.963 98.7031 444.338 96.375 445.15 93.6875C445.932 91 446.322 87.0938 446.322 81.9688C446.322 76.8438 445.932 72.9062 445.15 70.1562C444.338 67.4688 442.963 65.2031 441.025 63.3594C439.744 61.7344 437.932 60.2812 435.588 59C433.213 57.7812 430.104 57.1406 426.26 57.0781C422.541 57.1406 419.494 57.7812 417.119 59C414.713 60.2812 412.838 61.7344 411.494 63.3594C409.682 65.2031 408.338 67.4688 407.463 70.1562C406.619 72.9062 406.197 76.8438 406.197 81.9688ZM436.525 82.0625C436.525 85.375 436.369 87.8125 436.057 89.375C435.744 90.9688 435.104 92.375 434.135 93.5938C433.416 94.5312 432.354 95.3594 430.947 96.0781C429.604 96.7656 428.041 97.1094 426.26 97.1094C424.604 97.1094 423.072 96.7656 421.666 96.0781C420.322 95.3594 419.229 94.5312 418.385 93.5938C417.541 92.375 416.932 90.9688 416.557 89.375C416.182 87.8125 415.994 85.3438 415.994 81.9688C415.994 78.5625 416.182 76.0625 416.557 74.4688C416.932 72.9375 417.541 71.5938 418.385 70.4375C419.229 69.3438 420.322 68.4844 421.666 67.8594C423.072 67.2031 424.604 66.875 426.26 66.875C428.041 66.875 429.604 67.2031 430.947 67.8594C432.354 68.4844 433.416 69.3438 434.135 70.4375C435.104 71.5938 435.744 72.9375 436.057 74.4688C436.369 76.0625 436.525 78.5938 436.525 82.0625Z" fill="#111111"/>
<path d="M457.15 57.6875H452.275V65.1406H457.15V94.3438C457.15 98.1875 458.275 101.125 460.525 103.156C462.713 105.281 465.525 106.344 468.963 106.344H474.072V97.1094H470.416C468.041 97.1719 466.885 95.9688 466.947 93.5V65.1406H474.072V57.6875H466.947V42.875H457.15V57.6875Z" fill="#111111"/>
<path d="M521.041 85.7188V77.6562C520.979 71.25 518.994 66.2188 515.088 62.5625C511.244 58.9688 506.541 57.1406 500.979 57.0781C498.666 57.0781 496.322 57.5 493.947 58.3438C491.541 59.1875 489.369 60.5625 487.432 62.4688C485.525 64.3438 483.963 66.9062 482.744 70.1562C481.525 73.3438 480.916 77.3438 480.916 82.1562C480.916 87.1562 481.619 91.2188 483.025 94.3438C484.307 97.5938 485.979 100.125 488.041 101.938C489.104 102.812 490.244 103.547 491.463 104.141C492.619 104.828 493.807 105.375 495.025 105.781C497.463 106.531 499.963 106.906 502.525 106.906C509.244 106.969 515.088 104.344 520.057 99.0312L512.979 92.9844C509.854 96.1406 506.307 97.7188 502.338 97.7188C498.932 97.7188 496.182 96.6875 494.088 94.625C491.838 92.5938 490.713 89.625 490.713 85.7188H521.041ZM490.713 77.6562C490.9 73.875 491.916 71.0156 493.76 69.0781C495.635 67.2344 498.041 66.3125 500.979 66.3125C503.916 66.3125 506.322 67.2344 508.197 69.0781C510.104 71.0156 511.119 73.875 511.244 77.6562H490.713Z" fill="#111111"/>
<path d="M283.669 170.875C283.669 175.156 284.887 178.203 287.325 180.016C289.637 181.797 292.575 182.688 296.137 182.688H300.497V173.453H297.122C294.684 173.453 293.465 172.344 293.465 170.125V114.344H283.669V170.875Z" fill="#111111"/>
<path d="M333.965 182.688H343.762V149.453C343.7 143.516 341.84 139.328 338.184 136.891C334.528 134.516 329.637 133.359 323.512 133.422C316.262 133.297 310.778 135.672 307.059 140.547L314.747 146.406C315.59 145 316.747 144 318.215 143.406C319.622 142.906 321.544 142.656 323.981 142.656C330.7 142.531 334.028 144.609 333.965 148.891V154H320.419C315.231 154.062 311.294 155.469 308.606 158.219C305.919 160.906 304.575 164.297 304.575 168.391C304.575 172.672 306.122 176.188 309.215 178.938C312.153 181.75 316.34 183.188 321.778 183.25C325.09 183.25 327.684 182.844 329.559 182.031C331.465 181.25 332.872 180.031 333.778 178.375H333.965V182.688ZM333.965 165.578C333.965 169.234 333.2 171.578 331.669 172.609C329.981 173.641 327.09 174.125 322.997 174.062C319.747 174.062 317.419 173.422 316.012 172.141C314.544 170.984 313.809 169.578 313.809 167.922C313.747 164.141 316.559 162.188 322.247 162.062H333.965V165.578Z" fill="#111111"/>
<path d="M356.419 182.688H366.215V177.578C369.465 181.234 373.653 183.125 378.778 183.25C381.809 183.188 384.403 182.578 386.559 181.422C388.747 180.297 390.512 178.797 391.856 176.922C393.2 175.391 394.122 173.312 394.622 170.688C395.09 168.188 395.325 164.062 395.325 158.312C395.325 152.469 395.09 148.312 394.622 145.844C394.122 143.344 393.2 141.328 391.856 139.797C389.106 135.703 384.747 133.578 378.778 133.422C376.278 133.422 374.044 133.938 372.075 134.969C369.95 136.062 367.997 137.469 366.215 139.188V114.344H356.419V182.688ZM375.825 143.219C378.137 143.219 379.965 143.609 381.309 144.391C382.653 145.234 383.606 146.391 384.169 147.859C384.794 149.328 385.215 150.922 385.434 152.641C385.497 154.484 385.528 156.375 385.528 158.312C385.528 160.156 385.497 161.953 385.434 163.703C385.215 165.547 384.794 167.203 384.169 168.672C383.606 170.078 382.653 171.234 381.309 172.141C379.965 173.016 378.137 173.453 375.825 173.453C373.637 173.453 371.903 172.984 370.622 172.047C369.278 171.141 368.294 169.953 367.669 168.484C367.075 167.016 366.684 165.375 366.497 163.562C366.309 161.781 366.215 160.031 366.215 158.312C366.215 156.438 366.309 154.641 366.497 152.922C366.684 151.203 367.075 149.609 367.669 148.141C368.294 146.672 369.278 145.484 370.622 144.578C371.903 143.672 373.637 143.219 375.825 143.219Z" fill="#111111"/>
<path d="M407.747 167.828L400.903 174.531C407.247 180.344 414.387 183.25 422.325 183.25C428.169 183.188 432.965 181.844 436.715 179.219C440.497 176.656 442.419 173.016 442.481 168.297C442.481 164.266 441.434 160.938 439.34 158.312C437.09 155.625 433.434 154.094 428.372 153.719L420.309 153.109C417.934 152.859 416.278 152.281 415.34 151.375C414.309 150.562 413.825 149.609 413.887 148.516C413.887 146.797 414.528 145.391 415.809 144.297C417.028 143.203 419.169 142.656 422.231 142.656C424.919 142.656 427.294 143.047 429.356 143.828C431.45 144.703 433.434 145.812 435.309 147.156L441.356 140.078C438.981 138.016 436.294 136.375 433.294 135.156C431.731 134.594 430.059 134.156 428.278 133.844C426.497 133.562 424.481 133.422 422.231 133.422C417.044 133.422 412.762 134.672 409.387 137.172C405.919 139.672 404.153 143.422 404.09 148.422C404.153 152.578 405.497 155.812 408.122 158.125C410.684 160.5 414.012 161.875 418.106 162.25L426.731 163C428.544 163.062 429.997 163.453 431.09 164.172C432.153 164.859 432.684 166.078 432.684 167.828C432.684 169.797 431.794 171.328 430.012 172.422C428.231 173.516 425.934 174.062 423.122 174.062C416.84 174.062 411.715 171.984 407.747 167.828Z" fill="#111111"/>
<path d="M366.213 106.344H356.416L356.419 114.344H366.215L366.213 106.344Z" fill="#111111"/>
</svg>
