<svg width="319" height="336" viewBox="0 0 319 336" fill="none" xmlns="http://www.w3.org/2000/svg">
<path d="M123.61 125.6C119.83 127.6 116.07 129.7 112.27 131.68C111.42 132.12 111.36 132.47 111.84 133.26C115.293 139.205 119.893 144.403 125.373 148.555C130.852 152.706 137.103 155.726 143.76 157.44C154.55 160.394 166.011 159.734 176.39 155.56C177.25 155.23 177.51 155.26 177.69 156.28C179.39 165.9 181.137 175.51 182.93 185.11C183.09 185.95 182.65 186.03 182.09 186.2C172.975 189.164 163.39 190.412 153.82 189.88C123.73 188.05 100.82 174.15 85.08 148.48C84.08 146.86 84.14 146.84 82.46 147.74L67 156.08C66.71 156.24 66.4 156.37 66 156.57C68.78 137.01 71.55 117.57 74.33 97.98L121.2 120.12C122.181 121.863 122.989 123.699 123.61 125.6V125.6Z" fill="#111111"/>
<path d="M156.311 0L204.001 35.15L156.461 70.18C156.283 69.8316 156.23 69.4327 156.311 69.05C156.311 63.52 156.311 57.99 156.311 52.46C156.311 51.6 156.081 51.46 155.251 51.46C143.609 51.8731 132.432 56.1341 123.47 63.5764C114.508 71.0186 108.266 81.2221 105.721 92.59C105.601 93.1 105.501 93.59 105.401 94.13C105.051 94.22 104.821 94.01 104.571 93.9C95.7307 89.82 86.9107 85.72 78.0507 81.69C77.0507 81.26 76.9207 80.86 77.2307 79.89C82.0859 63.8799 91.6472 49.7017 104.671 39.2C116.335 29.6807 130.389 23.5476 145.301 21.47C148.332 21.0249 151.388 20.7744 154.451 20.72C156.291 20.72 156.291 20.72 156.291 18.89V0H156.311Z" fill="#111111"/>
<path d="M195.37 121.73C198.37 123.2 201.37 124.64 204.28 126.17C205.08 126.59 205.34 126.47 205.71 125.67C210.252 115.692 211.56 104.543 209.452 93.7841C207.343 83.0253 201.923 73.1952 193.95 65.67C192.84 64.67 192.86 64.67 194.1 63.67C201.673 57.97 209.23 52.25 216.77 46.51C217.45 45.99 217.77 45.93 218.44 46.61C230.039 58.8677 237.626 74.37 240.19 91.05C242.849 107.413 240.46 124.199 233.34 139.17C232.91 140.1 232.91 140.48 233.92 140.97C239.65 143.75 245.34 146.63 251.26 149.59L198.53 176.59L197.13 168.59L190.95 132.98C190.57 130.82 190.21 128.65 189.85 126.48C190.531 126.438 191.213 126.544 191.85 126.79C192.031 126.886 192.233 126.938 192.438 126.943C192.644 126.947 192.847 126.904 193.033 126.817C193.219 126.73 193.383 126.601 193.51 126.44C193.638 126.279 193.727 126.091 193.77 125.89C194.23 124.52 194.82 123.13 195.37 121.73Z" fill="#111111"/>
<path d="M195.37 121.73C194.82 123.13 194.23 124.52 193.73 125.94C193.687 126.141 193.599 126.329 193.471 126.49C193.343 126.651 193.18 126.78 192.994 126.867C192.808 126.954 192.604 126.997 192.399 126.993C192.193 126.988 191.992 126.936 191.81 126.84C191.173 126.594 190.491 126.488 189.81 126.53C188.267 125.979 186.655 125.643 185.02 125.53C184.739 125.512 184.458 125.572 184.209 125.705C183.96 125.837 183.752 126.036 183.61 126.28C182.652 127.613 181.522 128.813 180.25 129.85C179.928 130.077 179.689 130.403 179.568 130.778C179.447 131.153 179.452 131.557 179.58 131.93C180.14 133.86 180.58 135.81 181.17 137.75C181.63 139.35 181.61 139.45 180.17 140.12C176.61 141.73 173.03 143.31 169.5 144.97C169.35 145.077 169.177 145.149 168.995 145.179C168.813 145.21 168.626 145.199 168.449 145.147C168.272 145.095 168.109 145.003 167.972 144.879C167.836 144.755 167.729 144.601 167.66 144.43C166.54 142.68 165.35 140.97 164.23 139.21C164.032 138.807 163.705 138.483 163.3 138.289C162.896 138.095 162.438 138.042 162 138.14C160.446 138.357 158.871 138.383 157.31 138.22C156.904 138.159 156.488 138.233 156.128 138.43C155.767 138.627 155.48 138.936 155.31 139.31C154.31 141.19 153.13 143.03 152.11 144.93C152.047 145.113 151.944 145.28 151.808 145.418C151.672 145.556 151.507 145.662 151.325 145.728C151.143 145.795 150.948 145.819 150.755 145.8C150.562 145.782 150.376 145.72 150.21 145.62C146.49 144.18 142.78 142.75 139.03 141.39C138.831 141.355 138.642 141.276 138.478 141.157C138.314 141.039 138.178 140.885 138.082 140.707C137.986 140.529 137.931 140.332 137.922 140.13C137.913 139.927 137.95 139.726 138.03 139.54C138.49 137.54 138.87 135.45 139.31 133.41C139.43 132.956 139.397 132.474 139.216 132.041C139.036 131.607 138.717 131.245 138.31 131.01C136.943 130.038 135.712 128.888 134.65 127.59C134.499 127.38 134.281 127.228 134.033 127.157C133.784 127.087 133.519 127.102 133.28 127.2C131.06 127.82 128.81 128.36 126.6 129C126.434 129.082 126.251 129.124 126.065 129.125C125.88 129.126 125.697 129.085 125.53 129.006C125.362 128.926 125.215 128.809 125.099 128.664C124.983 128.52 124.902 128.351 124.86 128.17C124.593 127.243 124.159 126.372 123.58 125.6C122.956 123.698 122.145 121.863 121.16 120.12C120.839 119.053 120.396 118.026 119.84 117.06C119.741 116.927 119.673 116.772 119.643 116.609C119.612 116.446 119.619 116.277 119.664 116.117C119.708 115.957 119.788 115.809 119.899 115.685C120.009 115.561 120.146 115.463 120.3 115.4C122.15 114.21 123.96 112.96 125.81 111.78C126.155 111.598 126.432 111.311 126.602 110.96C126.771 110.609 126.823 110.213 126.75 109.83C126.484 108.177 126.44 106.495 126.62 104.83C126.665 104.435 126.581 104.035 126.379 103.692C126.176 103.349 125.868 103.082 125.5 102.93C123.63 101.87 121.78 100.75 119.88 99.73C119.02 99.27 118.93 98.73 119.25 97.91C120.7 94.16 122.13 90.4 123.51 86.62C123.54 86.4464 123.608 86.2816 123.709 86.1375C123.81 85.9933 123.942 85.8734 124.095 85.7863C124.248 85.6993 124.418 85.6473 124.594 85.6341C124.769 85.6209 124.946 85.6468 125.11 85.71C127.11 86.14 129.11 86.48 131.11 86.95C131.606 87.1252 132.148 87.1211 132.641 86.9384C133.134 86.7557 133.548 86.406 133.81 85.95C134.65 84.7522 135.66 83.6841 136.81 82.78C137.178 82.5271 137.451 82.1583 137.585 81.7325C137.719 81.3066 137.707 80.8481 137.55 80.43C136.92 78.37 136.45 76.25 135.83 74.18C135.756 74.031 135.717 73.8674 135.715 73.7012C135.713 73.5351 135.749 73.3706 135.819 73.2199C135.889 73.0692 135.992 72.9362 136.12 72.8306C136.248 72.725 136.399 72.6496 136.56 72.61C140.333 70.91 144.097 69.2 147.85 67.48C147.995 67.3941 148.156 67.3403 148.323 67.3223C148.49 67.3042 148.659 67.3224 148.818 67.3756C148.978 67.4287 149.124 67.5155 149.247 67.6302C149.369 67.7448 149.466 67.8846 149.53 68.04C150.65 69.8 151.86 71.5 152.96 73.27C153.166 73.7072 153.52 74.0579 153.959 74.2609C154.397 74.4638 154.893 74.506 155.36 74.38C156.796 74.1165 158.264 74.0827 159.71 74.28C160.191 74.3711 160.688 74.2948 161.12 74.0637C161.551 73.8326 161.89 73.4607 162.08 73.01C163.08 71.19 164.18 69.41 165.16 67.57C165.58 66.78 166.03 66.57 166.85 66.88C170.68 68.34 174.51 69.79 178.35 71.2C178.513 71.2325 178.667 71.3003 178.801 71.3987C178.935 71.497 179.046 71.6235 179.126 71.7693C179.207 71.9151 179.254 72.0767 179.265 72.2426C179.276 72.4086 179.25 72.5749 179.19 72.73C178.77 74.73 178.44 76.73 177.95 78.73C177.764 79.2594 177.768 79.8374 177.964 80.3636C178.159 80.8898 178.533 81.3308 179.02 81.61C180.208 82.3885 181.259 83.3583 182.13 84.48C182.377 84.8521 182.745 85.1272 183.171 85.2585C183.598 85.3898 184.057 85.3691 184.47 85.2C186.34 84.69 188.22 84.2 190.08 83.66C191.68 83.2 191.84 83.26 192.53 84.8C194.12 88.33 195.68 91.87 197.32 95.38C197.423 95.5225 197.493 95.6862 197.524 95.8591C197.556 96.032 197.548 96.2098 197.502 96.3794C197.456 96.5491 197.373 96.7063 197.258 96.8396C197.144 96.9729 197.001 97.079 196.84 97.15C195.03 98.32 193.26 99.56 191.43 100.72C191.029 100.921 190.71 101.256 190.527 101.666C190.345 102.076 190.311 102.537 190.43 102.97C190.745 104.395 190.806 105.864 190.61 107.31C190.512 107.807 190.588 108.322 190.824 108.77C191.061 109.218 191.444 109.571 191.91 109.77C193.61 110.7 195.28 111.67 196.97 112.62C198.31 113.37 198.36 113.52 197.81 115C197 117.26 196.19 119.49 195.37 121.73ZM140.37 106.3C140.378 109.905 141.454 113.427 143.462 116.421C145.47 119.414 148.321 121.746 151.653 123.121C154.986 124.496 158.651 124.853 162.186 124.146C165.721 123.439 168.967 121.701 171.515 119.151C174.062 116.6 175.797 113.352 176.5 109.816C177.203 106.28 176.842 102.615 175.464 99.2845C174.085 95.9535 171.75 93.1058 168.754 91.1009C165.758 89.0961 162.235 88.0239 158.63 88.02C156.235 88.0213 153.864 88.4958 151.653 89.4162C149.442 90.3367 147.434 91.685 145.746 93.3836C144.058 95.0823 142.721 97.0978 141.814 99.3144C140.907 101.531 140.447 103.905 140.46 106.3H140.37Z" fill="#DD2C1B"/>
<path d="M29.1094 253.234V258.344H38.9062V190H29.1094V214.844C27.2969 213.125 25.4062 211.719 23.4375 210.625C21.3125 209.594 19 209.078 16.5 209.078C10.5625 209.234 6.21875 211.359 3.46875 215.453C2.125 216.984 1.23438 219 0.796875 221.5C0.265625 223.969 0 228.125 0 233.969C0 239.719 0.265625 243.844 0.796875 246.344C1.23438 248.969 2.125 251.047 3.46875 252.578C4.9375 254.453 6.76562 255.953 8.95312 257.078C11.0469 258.234 13.5625 258.844 16.5 258.906C21.6875 258.781 25.8906 256.891 29.1094 253.234ZM19.5 218.875C21.8125 218.875 23.6406 219.328 24.9844 220.234C26.3281 221.141 27.25 222.328 27.75 223.797C28.375 225.266 28.7969 226.859 29.0156 228.578C29.0781 230.297 29.1094 232.094 29.1094 233.969C29.1094 235.688 29.0781 237.438 29.0156 239.219C28.7969 241.031 28.375 242.672 27.75 244.141C27.25 245.609 26.3281 246.797 24.9844 247.703C23.6406 248.641 21.8125 249.109 19.5 249.109C17.1875 249.109 15.4219 248.672 14.2031 247.797C12.8594 246.891 11.875 245.734 11.25 244.328C10.6562 242.859 10.2656 241.203 10.0781 239.359C9.89062 237.609 9.79688 235.812 9.79688 233.969C9.79688 232.031 9.89062 230.141 10.0781 228.297C10.2656 226.578 10.6562 224.984 11.25 223.516C11.875 222.047 12.8594 220.891 14.2031 220.047C15.4219 219.266 17.1875 218.875 19.5 218.875Z" fill="#111111"/>
<path d="M47.4844 233.969C47.4844 239.094 47.9062 243 48.75 245.688C49.625 248.375 50.9688 250.703 52.7812 252.672C54.125 254.203 56 255.578 58.4062 256.797C60.7812 258.141 63.8281 258.844 67.5469 258.906C71.3906 258.844 74.5 258.141 76.875 256.797C78.1562 256.234 79.2031 255.562 80.0156 254.781C80.9219 254.094 81.6875 253.391 82.3125 252.672C84.25 250.703 85.625 248.375 86.4375 245.688C87.2188 243 87.6094 239.094 87.6094 233.969C87.6094 228.844 87.2188 224.906 86.4375 222.156C85.625 219.469 84.25 217.203 82.3125 215.359C81.0312 213.734 79.2188 212.281 76.875 211C74.5 209.781 71.3906 209.141 67.5469 209.078C63.8281 209.141 60.7812 209.781 58.4062 211C56 212.281 54.125 213.734 52.7812 215.359C50.9688 217.203 49.625 219.469 48.75 222.156C47.9062 224.906 47.4844 228.844 47.4844 233.969ZM77.8125 234.062C77.8125 237.375 77.6562 239.812 77.3438 241.375C77.0312 242.969 76.3906 244.375 75.4219 245.594C74.7031 246.531 73.6406 247.359 72.2344 248.078C70.8906 248.766 69.3281 249.109 67.5469 249.109C65.8906 249.109 64.3594 248.766 62.9531 248.078C61.6094 247.359 60.5156 246.531 59.6719 245.594C58.8281 244.375 58.2188 242.969 57.8438 241.375C57.4688 239.812 57.2812 237.344 57.2812 233.969C57.2812 230.562 57.4688 228.062 57.8438 226.469C58.2188 224.938 58.8281 223.594 59.6719 222.438C60.5156 221.344 61.6094 220.484 62.9531 219.859C64.3594 219.203 65.8906 218.875 67.5469 218.875C69.3281 218.875 70.8906 219.203 72.2344 219.859C73.6406 220.484 74.7031 221.344 75.4219 222.438C76.3906 223.594 77.0312 224.938 77.3438 226.469C77.6562 228.062 77.8125 230.594 77.8125 234.062Z" fill="#111111"/>
<path d="M98.4375 209.688H93.5625V217.141H98.4375V246.344C98.4375 250.188 99.5625 253.125 101.812 255.156C104 257.281 106.812 258.344 110.25 258.344H115.359V249.109H111.703C109.328 249.172 108.172 247.969 108.234 245.5V217.141H115.359V209.688H108.234V194.875H98.4375V209.688Z" fill="#111111"/>
<path d="M125.156 258.344H134.953V229.375C134.953 225.969 135.891 223.375 137.766 221.594C139.547 219.781 141.844 218.875 144.656 218.875C147.469 218.875 149.781 219.781 151.594 221.594C153.375 223.375 154.266 225.969 154.266 229.375V258.344H164.062V229.375C164.062 225.969 164.984 223.375 166.828 221.594C168.641 219.781 170.953 218.875 173.766 218.875C176.578 218.875 178.875 219.781 180.656 221.594C182.438 223.375 183.328 225.969 183.328 229.375V258.344H193.125V226C193 220.438 191.281 216.219 187.969 213.344C184.625 210.5 180.938 209.078 176.906 209.078C170.5 209.016 165.391 211.141 161.578 215.453C159.891 213.578 158.031 212.031 156 210.812C153.938 209.719 151.219 209.141 147.844 209.078C142.594 209.078 138.359 211 135.141 214.844H134.953V209.688H125.156V258.344Z" fill="#111111"/>
<path d="M204.047 233.969C204.047 239.094 204.469 243 205.312 245.688C206.188 248.375 207.531 250.703 209.344 252.672C210.688 254.203 212.562 255.578 214.969 256.797C217.344 258.141 220.391 258.844 224.109 258.906C227.953 258.844 231.062 258.141 233.438 256.797C234.719 256.234 235.766 255.562 236.578 254.781C237.484 254.094 238.25 253.391 238.875 252.672C240.812 250.703 242.188 248.375 243 245.688C243.781 243 244.172 239.094 244.172 233.969C244.172 228.844 243.781 224.906 243 222.156C242.188 219.469 240.812 217.203 238.875 215.359C237.594 213.734 235.781 212.281 233.438 211C231.062 209.781 227.953 209.141 224.109 209.078C220.391 209.141 217.344 209.781 214.969 211C212.562 212.281 210.688 213.734 209.344 215.359C207.531 217.203 206.188 219.469 205.312 222.156C204.469 224.906 204.047 228.844 204.047 233.969ZM234.375 234.062C234.375 237.375 234.219 239.812 233.906 241.375C233.594 242.969 232.953 244.375 231.984 245.594C231.266 246.531 230.203 247.359 228.797 248.078C227.453 248.766 225.891 249.109 224.109 249.109C222.453 249.109 220.922 248.766 219.516 248.078C218.172 247.359 217.078 246.531 216.234 245.594C215.391 244.375 214.781 242.969 214.406 241.375C214.031 239.812 213.844 237.344 213.844 233.969C213.844 230.562 214.031 228.062 214.406 226.469C214.781 224.938 215.391 223.594 216.234 222.438C217.078 221.344 218.172 220.484 219.516 219.859C220.922 219.203 222.453 218.875 224.109 218.875C225.891 218.875 227.453 219.203 228.797 219.859C230.203 220.484 231.266 221.344 231.984 222.438C232.953 223.594 233.594 224.938 233.906 226.469C234.219 228.062 234.375 230.594 234.375 234.062Z" fill="#111111"/>
<path d="M255 209.688H250.125V217.141H255V246.344C255 250.188 256.125 253.125 258.375 255.156C260.562 257.281 263.375 258.344 266.812 258.344H271.922V249.109H268.266C265.891 249.172 264.734 247.969 264.797 245.5V217.141H271.922V209.688H264.797V194.875H255V209.688Z" fill="#111111"/>
<path d="M318.891 237.719V229.656C318.828 223.25 316.844 218.219 312.938 214.562C309.094 210.969 304.391 209.141 298.828 209.078C296.516 209.078 294.172 209.5 291.797 210.344C289.391 211.188 287.219 212.562 285.281 214.469C283.375 216.344 281.812 218.906 280.594 222.156C279.375 225.344 278.766 229.344 278.766 234.156C278.766 239.156 279.469 243.219 280.875 246.344C282.156 249.594 283.828 252.125 285.891 253.938C286.953 254.812 288.094 255.547 289.312 256.141C290.469 256.828 291.656 257.375 292.875 257.781C295.312 258.531 297.812 258.906 300.375 258.906C307.094 258.969 312.938 256.344 317.906 251.031L310.828 244.984C307.703 248.141 304.156 249.719 300.188 249.719C296.781 249.719 294.031 248.688 291.938 246.625C289.688 244.594 288.562 241.625 288.562 237.719H318.891ZM288.562 229.656C288.75 225.875 289.766 223.016 291.609 221.078C293.484 219.234 295.891 218.312 298.828 218.312C301.766 218.312 304.172 219.234 306.047 221.078C307.953 223.016 308.969 225.875 309.094 229.656H288.562Z" fill="#111111"/>
<path d="M81.5182 322.875C81.5182 327.156 82.737 330.203 85.1745 332.016C87.487 333.797 90.4245 334.688 93.987 334.688H98.3463V325.453H94.9713C92.5338 325.453 91.3151 324.344 91.3151 322.125V266.344H81.5182V322.875Z" fill="#111111"/>
<path d="M131.815 334.688H141.612V301.453C141.549 295.516 139.69 291.328 136.034 288.891C132.378 286.516 127.487 285.359 121.362 285.422C114.112 285.297 108.628 287.672 104.909 292.547L112.596 298.406C113.44 297 114.596 296 116.065 295.406C117.471 294.906 119.393 294.656 121.831 294.656C128.549 294.531 131.878 296.609 131.815 300.891V306H118.268C113.081 306.062 109.143 307.469 106.456 310.219C103.768 312.906 102.424 316.297 102.424 320.391C102.424 324.672 103.971 328.188 107.065 330.938C110.003 333.75 114.19 335.188 119.628 335.25C122.94 335.25 125.534 334.844 127.409 334.031C129.315 333.25 130.721 332.031 131.628 330.375H131.815V334.688ZM131.815 317.578C131.815 321.234 131.049 323.578 129.518 324.609C127.831 325.641 124.94 326.125 120.846 326.062C117.596 326.062 115.268 325.422 113.862 324.141C112.393 322.984 111.659 321.578 111.659 319.922C111.596 316.141 114.409 314.188 120.096 314.062H131.815V317.578Z" fill="#111111"/>
<path d="M154.268 334.688H164.065V329.578C167.315 333.234 171.503 335.125 176.628 335.25C179.659 335.188 182.253 334.578 184.409 333.422C186.596 332.297 188.362 330.797 189.706 328.922C191.049 327.391 191.971 325.312 192.471 322.688C192.94 320.188 193.174 316.062 193.174 310.312C193.174 304.469 192.94 300.312 192.471 297.844C191.971 295.344 191.049 293.328 189.706 291.797C186.956 287.703 182.596 285.578 176.628 285.422C174.128 285.422 171.893 285.938 169.924 286.969C167.799 288.062 165.846 289.469 164.065 291.188V266.344H154.268V334.688ZM173.674 295.219C175.987 295.219 177.815 295.609 179.159 296.391C180.503 297.234 181.456 298.391 182.018 299.859C182.643 301.328 183.065 302.922 183.284 304.641C183.346 306.484 183.378 308.375 183.378 310.312C183.378 312.156 183.346 313.953 183.284 315.703C183.065 317.547 182.643 319.203 182.018 320.672C181.456 322.078 180.503 323.234 179.159 324.141C177.815 325.016 175.987 325.453 173.674 325.453C171.487 325.453 169.753 324.984 168.471 324.047C167.128 323.141 166.143 321.953 165.518 320.484C164.924 319.016 164.534 317.375 164.346 315.562C164.159 313.781 164.065 312.031 164.065 310.312C164.065 308.438 164.159 306.641 164.346 304.922C164.534 303.203 164.924 301.609 165.518 300.141C166.143 298.672 167.128 297.484 168.471 296.578C169.753 295.672 171.487 295.219 173.674 295.219Z" fill="#111111"/>
<path d="M205.596 319.828L198.753 326.531C205.096 332.344 212.237 335.25 220.174 335.25C226.018 335.188 230.815 333.844 234.565 331.219C238.346 328.656 240.268 325.016 240.331 320.297C240.331 316.266 239.284 312.938 237.19 310.312C234.94 307.625 231.284 306.094 226.221 305.719L218.159 305.109C215.784 304.859 214.128 304.281 213.19 303.375C212.159 302.562 211.674 301.609 211.737 300.516C211.737 298.797 212.378 297.391 213.659 296.297C214.878 295.203 217.018 294.656 220.081 294.656C222.768 294.656 225.143 295.047 227.206 295.828C229.299 296.703 231.284 297.812 233.159 299.156L239.206 292.078C236.831 290.016 234.143 288.375 231.143 287.156C229.581 286.594 227.909 286.156 226.128 285.844C224.346 285.562 222.331 285.422 220.081 285.422C214.893 285.422 210.612 286.672 207.237 289.172C203.768 291.672 202.003 295.422 201.94 300.422C202.003 304.578 203.346 307.812 205.971 310.125C208.534 312.5 211.862 313.875 215.956 314.25L224.581 315C226.393 315.062 227.846 315.453 228.94 316.172C230.003 316.859 230.534 318.078 230.534 319.828C230.534 321.797 229.643 323.328 227.862 324.422C226.081 325.516 223.784 326.062 220.971 326.062C214.69 326.062 209.565 323.984 205.596 319.828Z" fill="#111111"/>
<path d="M164.062 258.344H154.266L154.268 266.344H164.065L164.062 258.344Z" fill="#111111"/>
</svg>
