<svg id="Layer_1" data-name="Layer 1" xmlns="http://www.w3.org/2000/svg" viewBox="0 0 349.03 322.78"><defs><style>.cls-1{fill:#010101;}.cls-2{fill:#ed230f;}</style></defs><title>dotmote_trace</title><path class="cls-1" d="M144.15,143.21c-3.78,2-7.54,4.1-11.34,6.08-.85.44-.91.79-.43,1.58a51.87,51.87,0,0,0,31.92,24.18,51.21,51.21,0,0,0,32.63-1.88c.86-.33,1.12-.3,1.3.72q2.55,14.43,5.24,28.83c.16.84-.28.92-.84,1.09a77.49,77.49,0,0,1-28.27,3.68c-30.09-1.83-53-15.73-68.74-41.4-1-1.62-.94-1.64-2.62-.74l-15.46,8.34c-.29.16-.6.29-1,.49,2.78-19.56,5.55-39,8.33-58.59l46.87,22.14A30.44,30.44,0,0,1,144.15,143.21Z" transform="translate(-5.83 -17.61)"/><path class="cls-1" d="M176.85,17.61l47.69,35.15L177,87.79a1.71,1.71,0,0,1-.15-1.13c0-5.53,0-11.06,0-16.59,0-.86-.23-1-1.06-1a52.67,52.67,0,0,0-49.53,41.13c-.12.51-.22,1-.32,1.54-.35.09-.58-.12-.83-.23-8.84-4.08-17.66-8.18-26.52-12.21-1-.43-1.13-.83-.82-1.8a83.34,83.34,0,0,1,27.44-40.69,82.2,82.2,0,0,1,40.63-17.73,71.75,71.75,0,0,1,9.15-.75c1.84,0,1.84,0,1.84-1.83V17.61Z" transform="translate(-5.83 -17.61)"/><path class="cls-1" d="M215.91,139.34c3,1.47,6,2.91,8.91,4.44.8.42,1.06.3,1.43-.5a52.56,52.56,0,0,0-11.76-60c-1.11-1-1.09-1,.15-2Q226,72.73,237.31,64.12c.68-.52,1-.58,1.67.1a83,83,0,0,1,21.75,44.44,81.57,81.57,0,0,1-6.85,48.12c-.43.93-.43,1.31.58,1.8,5.73,2.78,11.42,5.66,17.34,8.62l-52.73,27-1.4-8-6.18-35.61c-.38-2.16-.74-4.33-1.1-6.5a4.75,4.75,0,0,1,2,.31,1.33,1.33,0,0,0,1.92-.9C214.77,142.13,215.36,140.74,215.91,139.34Z" transform="translate(-5.83 -17.61)"/><path class="cls-1" d="M153.56,219.07a19.26,19.26,0,0,1,5.49-4.5c5.93-3,16.25-3.38,22.87,4.14.6.67.88.76,1.57,0,4.64-4.77,10.43-6.4,16.92-6.13a18,18,0,0,1,11.24,4.68A16.37,16.37,0,0,1,217.16,230c.16,11.92.05,23.84.09,35.75,0,.77-.31.82-.93.82-2.91,0-5.82-.05-8.74,0-.9,0-1.11-.25-1.1-1.12,0-10.24,0-20.47,0-30.71a13,13,0,0,0-1.34-6.28,10.18,10.18,0,0,0-9.86-5.11c-6,.43-9.87,4.62-9.88,11.22,0,10.16,0,20.32,0,30.48,0,.56.53,1.52-.75,1.56-.19,0-.14.39-.14.61q0,12.27,0,24.54s0,0,.18.12a32.13,32.13,0,0,1,5.92-4.23c5.79-3.37,16.81-2.18,21.74,4.71A19.51,19.51,0,0,1,216,302.82a152.94,152.94,0,0,1-.14,21.83c-.8,9.56-8.94,16.05-18.27,15.64a17.9,17.9,0,0,1-12.57-5.56l-.56-.52c0,1.56-.06,2.92,0,4.28,0,.92-.12,1.29-1.18,1.26-2.84-.09-5.68-.08-8.52,0-.93,0-1.07-.32-1.07-1.14q0-32,0-63.89,0-4.36,0-8.74c0-.47-.23-1.08.65-1.12.38,0,.27-.47.27-.75,0-10.08.06-20.17-.05-30.26,0-5.24-2.86-9-7.25-10.12-7.49-2-13.77,2.79-13.82,10.55s0,15.25,0,22.87c0,2.84,0,5.68,0,8.51,0,.66-.12.91-.85.9-3-.05-6-.06-9,0-.84,0-.95-.31-.95-1,0-6.65,0-13.3,0-19.94,0-10.39,0-20.78,0-31.16,0-1,.29-1.23,1.25-1.21,2.8.07,5.6.08,8.4,0,1,0,1.18.29,1.14,1.19C153.5,215.83,153.56,217.28,153.56,219.07Zm52,93.87c0-1.49,0-3,0-4.48a17.09,17.09,0,0,0-1.46-6.95,7,7,0,0,0-3.91-4.1,13.26,13.26,0,0,0-8.57-.44c-3.55,1-5.46,3.61-6.24,7.08a44.08,44.08,0,0,0-.32,16.47,11.32,11.32,0,0,0,2.34,5.84c2.62,3.08,6.07,3.56,9.78,3.1a8.43,8.43,0,0,0,7.37-6.11C205.77,319.94,205.55,316.44,205.57,312.94Z" transform="translate(-5.83 -17.61)"/><path class="cls-2" d="M215.91,139.34c-.55,1.4-1.14,2.79-1.64,4.21a1.33,1.33,0,0,1-1.92.9,4.75,4.75,0,0,0-2-.31,17.94,17.94,0,0,0-4.79-1,1.52,1.52,0,0,0-1.41.75,18.64,18.64,0,0,1-3.36,3.57,1.82,1.82,0,0,0-.67,2.08c.56,1.93,1,3.88,1.59,5.82.46,1.6.44,1.7-1,2.37-3.56,1.61-7.14,3.19-10.67,4.85a1.22,1.22,0,0,1-1.84-.54c-1.12-1.75-2.31-3.46-3.43-5.22a2,2,0,0,0-2.23-1.07,19.36,19.36,0,0,1-4.69.08,1.89,1.89,0,0,0-2,1.09c-1,1.88-2.18,3.72-3.2,5.62a1.3,1.3,0,0,1-1.9.69c-3.72-1.44-7.43-2.87-11.18-4.23a1.34,1.34,0,0,1-1-1.85c.46-2,.84-4.09,1.28-6.13a2.14,2.14,0,0,0-1-2.4,18.84,18.84,0,0,1-3.66-3.42,1.15,1.15,0,0,0-1.37-.39c-2.22.62-4.47,1.16-6.68,1.8a1.23,1.23,0,0,1-1.74-.83,7.94,7.94,0,0,0-1.28-2.57,30.44,30.44,0,0,0-2.42-5.48,14.58,14.58,0,0,0-1.32-3.06,1.09,1.09,0,0,1,.46-1.66c1.85-1.19,3.66-2.44,5.51-3.62a1.82,1.82,0,0,0,.94-1.95,18.76,18.76,0,0,1-.13-5,1.83,1.83,0,0,0-1.12-1.9c-1.87-1.06-3.72-2.18-5.62-3.2-.86-.46-.95-1-.63-1.82,1.45-3.75,2.88-7.51,4.26-11.29a1.19,1.19,0,0,1,1.6-.91c2,.43,4,.77,6,1.24a2.25,2.25,0,0,0,2.7-1,14.94,14.94,0,0,1,3-3.17,2,2,0,0,0,.74-2.35c-.63-2.06-1.1-4.18-1.72-6.25a1.11,1.11,0,0,1,.73-1.57q5.66-2.55,11.29-5.13a1.17,1.17,0,0,1,1.68.56c1.12,1.76,2.33,3.46,3.43,5.23a2.06,2.06,0,0,0,2.4,1.11,13.78,13.78,0,0,1,4.35-.1,2.14,2.14,0,0,0,2.37-1.27c1-1.82,2.1-3.6,3.08-5.44.42-.79.87-1,1.69-.69,3.83,1.46,7.66,2.91,11.5,4.32a1.14,1.14,0,0,1,.84,1.53c-.42,2-.75,4-1.24,6a2.4,2.4,0,0,0,1.07,2.88,12.87,12.87,0,0,1,3.11,2.87,1.93,1.93,0,0,0,2.34.72c1.87-.51,3.75-1,5.61-1.54,1.6-.46,1.76-.4,2.45,1.14,1.59,3.53,3.15,7.07,4.79,10.58a1.18,1.18,0,0,1-.48,1.77c-1.81,1.17-3.58,2.41-5.41,3.57a1.94,1.94,0,0,0-1,2.25,12.42,12.42,0,0,1,.18,4.34,2.21,2.21,0,0,0,1.3,2.46c1.7.93,3.37,1.9,5.06,2.85,1.34.75,1.39.9.84,2.38C217.54,134.87,216.73,137.1,215.91,139.34Zm-55-15.43a18.24,18.24,0,1,0,18.26-18.28A18.18,18.18,0,0,0,161,123.91Z" transform="translate(-5.83 -17.61)"/><path class="cls-1" d="M37.69,218.59c.23-.34.1-.72.1-1.08,0-8.21,0-16.43,0-24.65,0-1,.3-1.22,1.25-1.2,2.84.06,5.68.05,8.51,0,.8,0,1,.23,1,1-.05,2.17,0,4.33,0,6.5q0,33.06,0,66.11c0,1-.24,1.31-1.28,1.28-2.83-.07-5.67,0-8.51,0-.71,0-1-.15-1-.91.06-1.45,0-2.9,0-4.39-.46,0-.61.35-.83.57a18.35,18.35,0,0,1-28-2.55,14.55,14.55,0,0,1-2.35-6.81,94.19,94.19,0,0,1,.27-26.67c1.1-6.52,7-12.32,14.87-13.09,5.81-.56,10.61,1.35,14.85,5.12.3.27.63.52.94.77C37.59,218.6,37.64,218.59,37.69,218.59Zm.12,20.92c-.12-2.16.16-4.68-.4-7.14s-1.15-5-3.14-6.78c-2.55-2.32-5.67-2.45-8.85-2.19-4.05.33-6.53,2.57-7.7,6.41a28.57,28.57,0,0,0-1,7.4c-.15,4.52-.21,9.06,1.33,13.4A8.21,8.21,0,0,0,25,256.23a14.66,14.66,0,0,0,4.58,0,8.21,8.21,0,0,0,6.84-5.37C37.84,247.29,37.74,243.57,37.81,239.51Z" transform="translate(-5.83 -17.61)"/><path class="cls-1" d="M128.13,300c-2.65-2-5.25-4-7.88-6-.66-.49-.22-.79.08-1.14a18.19,18.19,0,0,1,10.53-6.35,36.06,36.06,0,0,1,19,1.11c6.33,2.15,9.32,6.85,10,13.27a23.08,23.08,0,0,1,.09,2.35c0,11.77,0,23.53,0,35.29,0,1-.27,1.24-1.23,1.22-2.87-.07-5.75-.05-8.63,0-.68,0-.92-.17-.88-.87a29.38,29.38,0,0,0-.1-3.73,10.54,10.54,0,0,1-4.35,3.71,16.33,16.33,0,0,1-5.74,1.35c-5.37.37-10.6,0-15.24-3.2-9.62-6.6-8.48-20.59,0-26a17.08,17.08,0,0,1,8.14-2.55c5.37-.37,10.75-.13,16.13-.15.91,0,1.23-.22,1.17-1.17-.08-1.49,0-3,0-4.48a5.7,5.7,0,0,0-4.25-5.88,23.25,23.25,0,0,0-12.6-.19A7.3,7.3,0,0,0,128.13,300Zm13.39,17.18h-4.93a14.57,14.57,0,0,0-6.22,1.14,5.1,5.1,0,0,0-3.06,3.61,6.1,6.1,0,0,0,4,7.34c4.5,1.65,9.09,1.25,13.66.17a4.84,4.84,0,0,0,3.66-3.82c.72-2.56.52-5.18.57-7.78,0-.69-.39-.67-.87-.67C146.08,317.16,143.8,317.15,141.52,317.15Z" transform="translate(-5.83 -17.61)"/><path class="cls-1" d="M338.21,243.92c-5.16,0-10.31,0-15.46,0-.85,0-1.14.14-1.12,1.08.21,7.36,5.92,12.51,13.38,12.07a15.86,15.86,0,0,0,10.32-4.54c.56-.53.86-.52,1.43,0,2.09,1.86,4.23,3.67,6.38,5.47.45.38.59.61.11,1.12a25.84,25.84,0,0,1-28.94,6c-6.74-2.76-10.44-8.1-12.16-14.82a39.4,39.4,0,0,1,.83-23.49c3.2-9,9.72-13.78,19.23-14.16,10.9-.44,21.11,6.76,22.43,19.13.4,3.83.09,7.68.21,11.53,0,.86-.52.63-1,.63C348.67,243.93,343.44,243.92,338.21,243.92Zm-5.37-8.8c3.47,0,6.94,0,10.41,0,.58,0,.91-.07.84-.77a15,15,0,0,0-2.09-7.1c-2.13-3.22-5.27-4.52-9-4.55s-7.1,1.2-9.27,4.59a16.07,16.07,0,0,0-2.08,6.89c-.09.73.11,1,.88.95C326,235.1,329.41,235.12,332.84,235.12Z" transform="translate(-5.83 -17.61)"/><path class="cls-1" d="M229.13,239.29a51,51,0,0,1,1.28-11.88,20.7,20.7,0,0,1,17.79-14.67,43.55,43.55,0,0,1,7,.14c8.09.7,16.41,8.71,17.31,17.47a79.67,79.67,0,0,1-.17,19.76c-.72,4.9-3.3,8.68-6.88,11.95-7.21,6.57-20.92,7.19-29.38-.57a20.69,20.69,0,0,1-6.57-13.71A83.53,83.53,0,0,1,229.13,239.29Zm33.12.56c0-1.53.09-3.07,0-4.59a16.14,16.14,0,0,0-1-5.7,10.13,10.13,0,0,0-9.66-6.23c-5.44-.12-9.94,2.63-11,8.53a46,46,0,0,0-.11,15.39,9.89,9.89,0,0,0,5.31,7.82,12.37,12.37,0,0,0,5,1.32,10.45,10.45,0,0,0,11.16-8.84A36.09,36.09,0,0,0,262.25,239.85Z" transform="translate(-5.83 -17.61)"/><path class="cls-1" d="M101.78,241.11a63.25,63.25,0,0,1-.85,9.8,18.7,18.7,0,0,1-6.61,11c-6.94,5.91-14.9,6.71-23.09,3.54-7.83-3-12.06-9.2-13-17.58a71.73,71.73,0,0,1,.23-17.75C59.77,221,68,213,77.71,212.68a39.66,39.66,0,0,1,7.47.41c7.51,1.16,15.49,9,16.16,17.95C101.59,234.4,101.84,237.74,101.78,241.11Zm-10.74-1c0-2.23-.12-4.28-.21-6.33-.27-5.67-4.21-10.2-10.16-10.45-5.42-.22-10.27,2.35-11.43,8.32a44.22,44.22,0,0,0,0,16.26,9.61,9.61,0,0,0,5.58,7.36,12.22,12.22,0,0,0,4.53,1.11,10.47,10.47,0,0,0,11.28-9A45.71,45.71,0,0,0,91,240.12Z" transform="translate(-5.83 -17.61)"/><path class="cls-1" d="M247.21,285.8a28.58,28.58,0,0,1,18.61,6.5c.7.56.86.89.2,1.62-1.8,2-3.54,4.05-5.25,6.13-.51.62-.82.68-1.5.21a22.3,22.3,0,0,0-14.84-4.33c-2.29.17-4.58.42-6.23,2.3-2.24,2.55-2.53,6.53,1.77,8.26,2.16.88,4.45.87,6.71,1.07,3,.28,6,.33,9,.87,7.51,1.36,11.72,6.25,12.19,13.86.52,8.36-3.68,13.76-11.87,16.38-11.15,3.57-21.51,1.54-30.86-5.56-.77-.59-1.49-1.24-2.25-1.84-.44-.34-.4-.6,0-1q3.3-3.19,6.56-6.43c.37-.37.56-.29.88,0,5,4.91,11.08,6.68,17.91,6.31A11.65,11.65,0,0,0,255,328a5.8,5.8,0,0,0,1.78-7c-.89-1.89-2.68-2.43-4.53-2.63-4-.44-8-.7-12-1.15a16.35,16.35,0,0,1-9.69-4.23c-5.06-4.75-5.49-10.56-3.5-16.79,1.32-4.15,4.5-6.58,8.26-8.34C238.73,286.2,242.46,285.77,247.21,285.8Z" transform="translate(-5.83 -17.61)"/><path class="cls-1" d="M113.64,238.48c0-5.34,0-10.68,0-16,0-.81-.14-1.13-1-1.07-1.19.09-2.39,0-3.59,0-.57,0-.78-.16-.77-.76q0-3.36,0-6.72c0-.63.25-.75.8-.73,1.12,0,2.25-.08,3.36,0s1.24-.33,1.23-1.29c0-4.63,0-9.27,0-13.9,0-.83.18-1.07,1-1.05,2.91.06,5.83.05,8.74,0,.78,0,1,.2,1,1,0,4.67,0,9.34-.05,14,0,1.08.33,1.28,1.3,1.24,1.9-.07,3.81,0,5.71,0,.64,0,.84.2.83.83,0,2.17,0,4.33,0,6.5,0,.69-.2.9-.89.89-2,0-4,0-6.05,0-.67,0-.89.14-.89.86,0,10.19,0,20.39,0,30.59,0,2.26,1,3.31,3.18,3.51a32.6,32.6,0,0,0,3.7.05c.64,0,.93.1.92.84,0,2.84,0,5.68,0,8.52,0,.38,0,.77-.53.76-2.76-.06-5.54.24-8.27-.36a11.85,11.85,0,0,1-9.73-12.11C113.61,248.87,113.64,243.68,113.64,238.48Z" transform="translate(-5.83 -17.61)"/><path class="cls-1" d="M284.93,238.41c0-5.34,0-10.68,0-16,0-.78-.18-1-1-1-1.15.07-2.31,0-3.47,0-.65,0-.94-.12-.92-.86,0-2.16,0-4.33,0-6.49,0-.72.24-.89.9-.87,1.12,0,2.25,0,3.36,0,.85.06,1.13-.15,1.12-1.07-.05-4.66,0-9.33-.05-14,0-.94.25-1.18,1.18-1.16,2.87.06,5.75.05,8.62,0,.8,0,1,.21,1,1,0,4.75,0,9.49,0,14.23,0,.88.25,1,1.06,1,2-.06,3.95,0,5.93,0,.72,0,.88.22.87.89q-.06,3.26,0,6.5c0,.64-.19.84-.82.83-2.06,0-4.11,0-6.17,0-.7,0-.86.2-.86.87,0,10.2,0,20.39,0,30.59,0,2.23,1,3.3,3.2,3.5a34.56,34.56,0,0,0,3.81.05c.65,0,.81.21.81.83,0,2.84,0,5.68,0,8.52,0,.35.11.78-.5.77-2.72,0-5.47.25-8.16-.32-6.16-1.3-9.84-5.93-9.89-12.34C284.9,248.72,284.93,243.57,284.93,238.41Z" transform="translate(-5.83 -17.61)"/><path class="cls-1" d="M94.14,297.06q0-15.53,0-31c0-.94.23-1.18,1.16-1.15,2.8.06,5.6.07,8.4,0,1,0,1.22.26,1.22,1.24q0,29.52,0,59c0,.38,0,.75,0,1.12a3,3,0,0,0,3,3.25,32.42,32.42,0,0,0,3.69.07c.67,0,1,.09,1,.89,0,2.8,0,5.6,0,8.41,0,.46,0,.87-.66.85-2.57-.09-5.15.15-7.7-.33a13.93,13.93,0,0,1-6-2.57c-3.13-2.42-4-5.83-4-9.53C94.11,317.22,94.14,307.14,94.14,297.06Z" transform="translate(-5.83 -17.61)"/></svg>